<?xml version="1.0" encoding="UTF-8" standalone="no"?>
<!-- Created with Inkscape (http://www.inkscape.org/) -->

<svg
   xmlns:dc="http://purl.org/dc/elements/1.1/"
   xmlns:cc="http://creativecommons.org/ns#"
   xmlns:rdf="http://www.w3.org/1999/02/22-rdf-syntax-ns#"
   xmlns:svg="http://www.w3.org/2000/svg"
   xmlns="http://www.w3.org/2000/svg"
   xmlns:sodipodi="http://sodipodi.sourceforge.net/DTD/sodipodi-0.dtd"
   xmlns:inkscape="http://www.inkscape.org/namespaces/inkscape"
   width="35.059212mm"
   height="30.036058mm"
   viewBox="0 0 124.22556 106.42698"
   id="svg6685"
   version="1.1"
   inkscape:version="0.91 r13725"
   sodipodi:docname="camquat-pom-welcome-bark.svg">
  <defs
     id="defs6687" />
  <sodipodi:namedview
     id="base"
     pagecolor="#ffffff"
     bordercolor="#666666"
     borderopacity="1.0"
     inkscape:pageopacity="0.0"
     inkscape:pageshadow="2"
     inkscape:zoom="2.8284271"
     inkscape:cx="126.80296"
     inkscape:cy="94.418483"
     inkscape:document-units="px"
     inkscape:current-layer="layer1"
     showgrid="false"
     fit-margin-top="0"
     fit-margin-left="0"
     fit-margin-right="0"
     fit-margin-bottom="0"
     inkscape:window-width="1680"
     inkscape:window-height="1005"
     inkscape:window-x="152"
     inkscape:window-y="10"
     inkscape:window-maximized="0" />
  <metadata
     id="metadata6690">
    <rdf:RDF>
      <cc:Work
         rdf:about="">
        <dc:format>image/svg+xml</dc:format>
        <dc:type
           rdf:resource="http://purl.org/dc/dcmitype/StillImage" />
        <dc:title></dc:title>
      </cc:Work>
    </rdf:RDF>
  </metadata>
  <g
     inkscape:label="Layer 1"
     inkscape:groupmode="layer"
     id="layer1"
     transform="translate(11.06217,-147.55579)">
    <g
       id="g4692"
       transform="translate(-460.59701,-742.72893)"
       inkscape:export-filename="/Users/benjaminrobinson/Desktop/favicon.png"
       inkscape:export-xdpi="894.30133"
       inkscape:export-ydpi="894.30133">
      <path
         sodipodi:nodetypes="sssss"
         inkscape:connector-curvature="0"
         id="path4632"
         d="m 547.33801,987.73279 c 0.93855,-3.50272 1.68184,-7.91563 3.4332,-7.44637 1.75136,0.46928 3.81493,5.76501 2.87638,9.26775 -0.93856,3.50275 -2.66164,4.25425 -4.41301,3.78505 -1.75136,-0.4693 -2.83512,-2.1037 -1.89657,-5.60643 z"
         style="opacity:1;fill:#ffd68b;fill-opacity:1;stroke:#000000;stroke-width:1.29999995;stroke-linecap:square;stroke-linejoin:round;stroke-miterlimit:4;stroke-dasharray:none;stroke-dashoffset:0;stroke-opacity:1" />
      <path
         style="opacity:1;fill:#ffd68b;fill-opacity:1;stroke:#000000;stroke-width:1.29999995;stroke-linecap:square;stroke-linejoin:round;stroke-miterlimit:4;stroke-dasharray:none;stroke-dashoffset:0;stroke-opacity:1"
         d="m 525.77722,988.76832 c -0.93855,-3.50272 -1.68184,-7.91563 -3.4332,-7.44637 -1.75136,0.46928 -3.81493,5.76501 -2.87638,9.26775 0.93856,3.50272 2.66164,4.25432 4.41301,3.78502 1.75136,-0.4693 2.83512,-2.1037 1.89657,-5.6064 z"
         id="path4634"
         inkscape:connector-curvature="0"
         sodipodi:nodetypes="sssss" />
      <path
         style="opacity:1;fill:#ffd68b;fill-opacity:1;stroke:#000000;stroke-width:1.29999995;stroke-linecap:square;stroke-linejoin:round;stroke-miterlimit:4;stroke-dasharray:none;stroke-dashoffset:0;stroke-opacity:1"
         d="m 563.28798,908.15758 c 2.37232,10.90891 -5.04705,29.76363 -16.27451,24.49397 -12.62652,-5.92631 -0.88655,-19.52987 -3.45217,-17.26085 -28.87193,25.53415 -34.70371,-17.5883 -12.0004,-23.50763 13.82765,-3.60521 28.91362,3.33709 31.72708,16.27451 z"
         id="path4636"
         inkscape:connector-curvature="0"
         sodipodi:nodetypes="sssss" />
      <path
         inkscape:connector-curvature="0"
         id="path4638"
         d="m 510.18261,895.7237 c -0.21434,0.0159 -0.42292,0.0494 -0.625,0.10352 -2.74176,0.73465 -4.56279,5.21529 -4.52734,8.5332 -18.29846,7.31882 -31.23243,25.19765 -31.23243,46.10938 0,20.93628 12.96433,32.67952 31.29688,37.06836 -0.20105,1.26144 -0.2276,2.55223 0.0703,3.66406 0.93856,3.5027 2.66074,4.2525 4.41211,3.7832 1.75136,-0.4693 2.83504,-2.1028 1.89649,-5.60547 -0.0567,-0.21167 -0.11046,-0.43724 -0.16602,-0.65429 3.88821,0.55967 7.95482,0.83594 12.14648,0.83594 3.95963,0 7.8062,-0.2513 11.49805,-0.75 -0.09,0.35782 -0.17886,0.72269 -0.27148,1.06835 -0.93855,3.50267 0.14512,5.13617 1.89648,5.60547 1.75137,0.4693 3.4755,-0.2805 4.41406,-3.7832 0.32239,-1.20317 0.2732,-2.61662 0.0215,-3.97461 18.75681,-4.23554 32.09765,-16.01659 32.09765,-37.25781 0,-21.27838 -13.38671,-39.42274 -32.19531,-46.49024 -0.18111,-3.22961 -1.94268,-7.21344 -4.51367,-7.90234 -2.70764,-0.72551 -6.63638,2.11545 -8.35352,4.95703 -1.51316,-0.13885 -3.04436,-0.2207 -4.59375,-0.2207 -1.80969,0 -3.59393,0.10425 -5.35351,0.29297 -1.48753,-2.73211 -5.15188,-5.58805 -7.91797,-5.38282 z"
         style="opacity:1;fill:#ffbd55;fill-opacity:1;stroke:#000000;stroke-width:1.29999995;stroke-linecap:square;stroke-linejoin:round;stroke-miterlimit:4;stroke-dasharray:none;stroke-dashoffset:0;stroke-opacity:1" />
      <g
         transform="translate(337.72497,489.58423)"
         id="g4648">
        <circle
           r="13.75"
           cy="455.86221"
           cx="162.5"
           id="circle4650"
           style="opacity:1;fill:#ffd68b;fill-opacity:1;stroke:none;stroke-width:1.29999995;stroke-linecap:square;stroke-linejoin:round;stroke-miterlimit:4;stroke-dasharray:none;stroke-dashoffset:0;stroke-opacity:1" />
        <circle
           style="opacity:1;fill:#ffd68b;fill-opacity:1;stroke:none;stroke-width:1.29999995;stroke-linecap:square;stroke-linejoin:round;stroke-miterlimit:4;stroke-dasharray:none;stroke-dashoffset:0;stroke-opacity:1"
           id="circle4652"
           cx="203.5"
           cy="455.61221"
           r="13.75" />
      </g>
      <path
         style="opacity:1;fill:#000000;fill-opacity:1;stroke:none;stroke-width:1;stroke-linecap:square;stroke-linejoin:round;stroke-miterlimit:4;stroke-dasharray:none;stroke-dashoffset:0;stroke-opacity:1"
         d="m 525.26664,931.63712 c 2e-5,1.11133 -1.8739,3.37823 -4.1855,3.37824 -2.3116,0 -4.18552,-2.15307 -4.18551,-3.26442 0,-1.11133 1.87392,-0.87395 4.18551,-0.87395 2.31158,0 4.1855,-0.35122 4.1855,0.76013 z"
         id="path4660"
         inkscape:connector-curvature="0"
         sodipodi:nodetypes="sssss" />
      <circle
         style="opacity:1;fill:#000000;fill-opacity:1;stroke:none;stroke-width:1;stroke-linecap:square;stroke-linejoin:round;stroke-miterlimit:4;stroke-dasharray:none;stroke-dashoffset:0;stroke-opacity:1"
         id="circle4662"
         cx="512.02777"
         cy="929.40955"
         r="2.4701281" />
      <circle
         r="2.4701281"
         cy="929.40955"
         cx="530.13141"
         id="circle4664"
         style="opacity:1;fill:#000000;fill-opacity:1;stroke:none;stroke-width:1;stroke-linecap:square;stroke-linejoin:round;stroke-miterlimit:4;stroke-dasharray:none;stroke-dashoffset:0;stroke-opacity:1" />
      <path
         sodipodi:nodetypes="cccccc"
         inkscape:connector-curvature="0"
         id="path4668"
         d="m 521.12597,935.43998 c -2.01681,2.16189 -5.65324,1.55594 -5.42383,4.06276 -4.3e-4,2.94098 2.38324,5.32553 5.32422,5.32618 2.94174,4.3e-4 4.91757,-2.32457 5.32617,-5.23779 0.28598,-2.22253 -4.20113,-2.37509 -5.22656,-4.15119 z"
         style="opacity:1;fill:#000000;fill-opacity:1;stroke:#000000;stroke-width:1.29999995;stroke-linecap:square;stroke-linejoin:round;stroke-miterlimit:4;stroke-dasharray:none;stroke-dashoffset:0;stroke-opacity:1" />
      <path
         sodipodi:nodetypes="sssss"
         inkscape:connector-curvature="0"
         id="path4686"
         d="m 519.25399,941.94624 c 0,-0.83777 -0.41973,-1.51691 -0.9375,-1.51691 -0.51777,0 -0.9375,0.67914 -0.9375,1.51691 0,0.83777 0.41973,1.01691 0.9375,1.01691 0.51777,0 0.9375,-0.17914 0.9375,-1.01691 z"
         style="opacity:1;fill:#ffffff;fill-opacity:1;stroke:none;stroke-width:1.29999995;stroke-linecap:square;stroke-linejoin:round;stroke-miterlimit:4;stroke-dasharray:none;stroke-dashoffset:0;stroke-opacity:1" />
      <path
         style="opacity:1;fill:#ffffff;fill-opacity:1;stroke:none;stroke-width:1.29999995;stroke-linecap:square;stroke-linejoin:round;stroke-miterlimit:4;stroke-dasharray:none;stroke-dashoffset:0;stroke-opacity:1"
         d="m 524.37195,941.94624 c 0,-0.83777 -0.41973,-1.51691 -0.9375,-1.51691 -0.51777,0 -0.9375,0.67914 -0.9375,1.51691 0,0.83777 0.41973,1.01691 0.9375,1.01691 0.51777,0 0.9375,-0.17914 0.9375,-1.01691 z"
         id="path4689"
         inkscape:connector-curvature="0"
         sodipodi:nodetypes="sssss" />
    </g>
    <g
       id="g4646"
       transform="matrix(0.96592589,0.25881907,-0.25881907,0.96592589,87.623205,-238.48617)">
      <circle
         r="17.147339"
         cy="479.42892"
         cx="44.724503"
         id="path4633"
         style="opacity:1;fill:#ff7f2a;fill-opacity:1;stroke:#000000;stroke-width:1.29999995;stroke-linecap:square;stroke-linejoin:round;stroke-miterlimit:4;stroke-dasharray:none;stroke-dashoffset:0;stroke-opacity:1" />
      <path
         inkscape:connector-curvature="0"
         id="path4635"
         d="m 54.094417,456.27094 a 11.136931,11.136931 0 0 0 -9.94336,6.15039 11.136931,11.136931 0 0 0 9.94336,6.12304 11.136931,11.136931 0 0 0 9.941406,-6.14648 11.136931,11.136931 0 0 0 -9.941406,-6.12695 z"
         style="opacity:1;fill:#5fd38d;fill-opacity:1;stroke:#000000;stroke-width:1.29999995;stroke-linecap:square;stroke-linejoin:round;stroke-miterlimit:4;stroke-dasharray:none;stroke-dashoffset:0;stroke-opacity:1" />
      <ellipse
         ry="0.88388348"
         rx="1.4301536"
         cy="492.86395"
         cx="44.740444"
         id="path4642"
         style="opacity:1;fill:#000000;fill-opacity:1;stroke:none;stroke-width:1.29999995;stroke-linecap:square;stroke-linejoin:round;stroke-miterlimit:4;stroke-dasharray:none;stroke-dashoffset:0;stroke-opacity:1" />
    </g>
  </g>
</svg>
