<?xml version="1.0" encoding="UTF-8" standalone="no"?>
<!-- Created with Inkscape (http://www.inkscape.org/) -->

<svg
   xmlns:dc="http://purl.org/dc/elements/1.1/"
   xmlns:cc="http://creativecommons.org/ns#"
   xmlns:rdf="http://www.w3.org/1999/02/22-rdf-syntax-ns#"
   xmlns:svg="http://www.w3.org/2000/svg"
   xmlns="http://www.w3.org/2000/svg"
   xmlns:sodipodi="http://sodipodi.sourceforge.net/DTD/sodipodi-0.dtd"
   xmlns:inkscape="http://www.inkscape.org/namespaces/inkscape"
   width="35.059212mm"
   height="30.036058mm"
   viewBox="0 0 124.22556 106.42698"
   id="svg6685"
   version="1.1"
   inkscape:version="0.91 r13725"
   sodipodi:docname="camquat-pom-welcome.svg">
  <defs
     id="defs6687" />
  <sodipodi:namedview
     id="base"
     pagecolor="#ffffff"
     bordercolor="#666666"
     borderopacity="1.0"
     inkscape:pageopacity="0.0"
     inkscape:pageshadow="2"
     inkscape:zoom="2.8284271"
     inkscape:cx="126.80296"
     inkscape:cy="94.418483"
     inkscape:document-units="px"
     inkscape:current-layer="layer1"
     showgrid="false"
     fit-margin-top="0"
     fit-margin-left="0"
     fit-margin-right="0"
     fit-margin-bottom="0"
     inkscape:window-width="1680"
     inkscape:window-height="1005"
     inkscape:window-x="152"
     inkscape:window-y="10"
     inkscape:window-maximized="0" />
  <metadata
     id="metadata6690">
    <rdf:RDF>
      <cc:Work
         rdf:about="">
        <dc:format>image/svg+xml</dc:format>
        <dc:type
           rdf:resource="http://purl.org/dc/dcmitype/StillImage" />
        <dc:title></dc:title>
      </cc:Work>
    </rdf:RDF>
  </metadata>
  <g
     inkscape:label="Layer 1"
     inkscape:groupmode="layer"
     id="layer1"
     transform="translate(11.06217,-147.55579)">
    <g
       transform="translate(-122.28934,-267.9647)"
       id="g5362">
      <path
         style="opacity:1;fill:#ffd68b;fill-opacity:1;stroke:#000000;stroke-width:1.29999995;stroke-linecap:square;stroke-linejoin:round;stroke-miterlimit:4;stroke-dasharray:none;stroke-dashoffset:0;stroke-opacity:1"
         d="m 231.23037,439.89286 c 2.37232,10.90891 -5.04705,29.76363 -16.27451,24.49397 -12.62652,-5.92631 -0.88655,-19.52987 -3.45217,-17.26085 -28.87193,25.53415 -34.70371,-17.5883 -12.0004,-23.50763 13.82765,-3.60521 28.91362,3.33709 31.72708,16.27451 z"
         id="path4292"
         inkscape:connector-curvature="0"
         sodipodi:nodetypes="sssss" />
      <path
         style="opacity:1;fill:#ffd68b;fill-opacity:1;stroke:#000000;stroke-width:1.29999995;stroke-linecap:square;stroke-linejoin:round;stroke-miterlimit:4;stroke-dasharray:none;stroke-dashoffset:0;stroke-opacity:1"
         d="m 212.11599,511.76901 c 0.93855,-3.50272 1.68184,-7.91563 3.4332,-7.44637 1.75136,0.46928 3.81493,5.76501 2.87638,9.26775 -0.93856,3.50273 -2.66164,4.25429 -4.41301,3.78502 -1.75136,-0.46929 -2.83512,-2.10367 -1.89657,-5.6064 z"
         id="path4301"
         inkscape:connector-curvature="0"
         sodipodi:nodetypes="sssss" />
      <path
         sodipodi:nodetypes="sssss"
         inkscape:connector-curvature="0"
         id="path4303"
         d="m 190.5552,512.80454 c -0.93855,-3.50272 -1.68184,-7.91563 -3.4332,-7.44637 -1.75136,0.46928 -3.81493,5.76501 -2.87638,9.26775 0.93856,3.50273 2.66164,4.25429 4.41301,3.78502 1.75136,-0.46929 2.83512,-2.10367 1.89657,-5.6064 z"
         style="opacity:1;fill:#ffd68b;fill-opacity:1;stroke:#000000;stroke-width:1.29999995;stroke-linecap:square;stroke-linejoin:round;stroke-miterlimit:4;stroke-dasharray:none;stroke-dashoffset:0;stroke-opacity:1" />
      <path
         style="opacity:1;fill:#ffbd55;fill-opacity:1;stroke:#000000;stroke-width:1.29999995;stroke-linecap:square;stroke-linejoin:round;stroke-miterlimit:4;stroke-dasharray:none;stroke-dashoffset:0;stroke-opacity:1"
         d="m 185.14648,426.04883 c -5.76173,0 -11.28827,0.99226 -16.43359,2.79687 -1.76629,-1.36585 -3.83582,-2.21917 -5.46289,-1.7832 -2.20555,0.59098 -3.81875,3.6094 -4.34766,6.49414 -14.05398,8.76978 -23.41211,24.36238 -23.41211,42.14844 0,20.93628 12.96433,32.67952 31.29688,37.06836 -0.20105,1.26144 -0.2276,2.55223 0.0703,3.66406 0.93856,3.50273 2.66074,4.25247 4.41211,3.7832 1.75136,-0.46929 2.83504,-2.10274 1.89649,-5.60547 -0.0567,-0.21167 -0.11046,-0.43724 -0.16602,-0.65429 3.88821,0.55967 7.95482,0.83594 12.14648,0.83594 3.95963,0 7.8062,-0.2513 11.49805,-0.75 -0.09,0.35782 -0.17886,0.72269 -0.27148,1.06835 -0.93855,3.50273 0.14512,5.13618 1.89648,5.60547 1.75137,0.46927 3.4755,-0.28047 4.41406,-3.7832 0.32239,-1.20316 0.2732,-2.61662 0.0215,-3.97461 18.75681,-4.23554 32.09765,-16.01659 32.09765,-37.25781 0,-18.27479 -9.87796,-34.23216 -24.58007,-42.85352 -0.67834,-2.56502 -2.16653,-5.01324 -4.12891,-5.53906 -1.46456,-0.39243 -3.28788,0.26449 -4.92578,1.39453 -5.02809,-1.71363 -10.41341,-2.6582 -16.02149,-2.6582 z"
         id="path4266"
         inkscape:connector-curvature="0" />
      <g
         id="g4276"
         transform="matrix(1.2749048,0,0,1.2749048,-186.04207,-120.16155)">
        <path
           style="opacity:1;fill:#ff8080;fill-opacity:1;stroke:#000000;stroke-width:1.01968396;stroke-linecap:square;stroke-linejoin:round;stroke-miterlimit:4;stroke-dasharray:none;stroke-dashoffset:0;stroke-opacity:1"
           d="m 289.32422,460.34512 c -0.71016,1.02736 -1.74267,1.78447 -2.94922,2.01367 l 0,3.07813 0.0117,0 a 3,3 0 0 0 2.99805,2.94531 3,3 0 0 0 3,-3 3,3 0 0 0 -0.01,-0.24219 l 0,-2.76172 c -1.25046,-0.20452 -2.3207,-0.97679 -3.05078,-2.0332 z"
           id="path4278"
           inkscape:connector-curvature="0" />
        <path
           style="color:#000000;font-style:normal;font-variant:normal;font-weight:normal;font-stretch:normal;font-size:medium;line-height:normal;font-family:sans-serif;text-indent:0;text-align:start;text-decoration:none;text-decoration-line:none;text-decoration-style:solid;text-decoration-color:#000000;letter-spacing:normal;word-spacing:normal;text-transform:none;direction:ltr;block-progression:tb;writing-mode:lr-tb;baseline-shift:baseline;text-anchor:start;white-space:normal;clip-rule:nonzero;display:inline;overflow:visible;visibility:visible;opacity:1;isolation:auto;mix-blend-mode:normal;color-interpolation:sRGB;color-interpolation-filters:linearRGB;solid-color:#000000;solid-opacity:1;fill:#000000;fill-opacity:1;fill-rule:nonzero;stroke:none;stroke-width:1;stroke-linecap:square;stroke-linejoin:round;stroke-miterlimit:4;stroke-dasharray:none;stroke-dashoffset:0;stroke-opacity:1;color-rendering:auto;image-rendering:auto;shape-rendering:auto;text-rendering:auto;enable-background:accumulate"
           d="m 281.17383,459.54883 c 0.52886,1.97167 2.31597,3.4375 4.45117,3.4375 1.52975,-0.002 2.84538,-0.85658 3.69922,-2.0918 0.85424,1.23606 2.17049,2.09056 3.70117,2.0918 2.13521,0 3.92232,-1.46583 4.45117,-3.4375 0.16188,-0.8497 -0.69271,-1.12101 -1.03906,0 -0.49138,1.41834 -1.82263,2.4375 -3.41211,2.4375 -1.38379,-0.001 -2.64327,-0.78852 -3.25195,-2.03125 -0.18281,-0.37385 -0.71563,-0.37385 -0.89844,0 -0.60841,1.24218 -1.86683,2.02947 -3.25,2.03125 -1.58948,0 -2.92072,-1.01916 -3.41211,-2.4375 -0.4783,-1.12357 -1.1642,-0.70396 -1.03906,0 z"
           id="path4280"
           inkscape:connector-curvature="0"
           sodipodi:nodetypes="cccccccccccc" />
        <path
           sodipodi:nodetypes="sssss"
           inkscape:connector-curvature="0"
           id="path4282"
           d="m 292.57173,457.31566 c 10e-6,0.8717 -1.46984,2.64979 -3.28299,2.6498 -1.81316,0 -3.28301,-1.68881 -3.283,-2.56052 0,-0.8717 1.46985,-0.6855 3.283,-0.6855 1.81314,0 3.28299,-0.27549 3.28299,0.59622 z"
           style="opacity:1;fill:#000000;fill-opacity:1;stroke:none;stroke-width:1;stroke-linecap:square;stroke-linejoin:round;stroke-miterlimit:4;stroke-dasharray:none;stroke-dashoffset:0;stroke-opacity:1" />
        <circle
           r="1.9375"
           cy="450.86221"
           cx="282.1875"
           id="circle4284"
           style="opacity:1;fill:#000000;fill-opacity:1;stroke:none;stroke-width:1;stroke-linecap:square;stroke-linejoin:round;stroke-miterlimit:4;stroke-dasharray:none;stroke-dashoffset:0;stroke-opacity:1" />
        <circle
           style="opacity:1;fill:#000000;fill-opacity:1;stroke:none;stroke-width:1;stroke-linecap:square;stroke-linejoin:round;stroke-miterlimit:4;stroke-dasharray:none;stroke-dashoffset:0;stroke-opacity:1"
           id="circle4286"
           cx="296.38751"
           cy="450.86221"
           r="1.9375" />
      </g>
      <g
         transform="translate(0,12)"
         id="g4325">
        <path
           style="opacity:1;fill:#ffd68b;fill-opacity:1;stroke:#000000;stroke-width:1.29999995;stroke-linecap:square;stroke-linejoin:round;stroke-miterlimit:4;stroke-dasharray:none;stroke-dashoffset:0;stroke-opacity:1"
           d="m 231.23037,427.89286 c 2.37232,10.90891 -5.04705,29.76363 -16.27451,24.49397 -12.62652,-5.92631 -0.88655,-19.52987 -3.45217,-17.26085 -28.87193,25.53415 -34.70371,-17.5883 -12.0004,-23.50763 13.82765,-3.60521 28.91362,3.33709 31.72708,16.27451 z"
           id="path4305"
           inkscape:connector-curvature="0"
           sodipodi:nodetypes="sssss" />
        <path
           style="opacity:1;fill:#ffd68b;fill-opacity:1;stroke:#000000;stroke-width:1.29999995;stroke-linecap:square;stroke-linejoin:round;stroke-miterlimit:4;stroke-dasharray:none;stroke-dashoffset:0;stroke-opacity:1"
           d="m 212.11599,499.76901 c 0.93855,-3.50272 1.68184,-7.91563 3.4332,-7.44637 1.75136,0.46928 3.81493,5.76501 2.87638,9.26775 -0.93856,3.50273 -2.66164,4.25429 -4.41301,3.78502 -1.75136,-0.46929 -2.83512,-2.10367 -1.89657,-5.6064 z"
           id="path4307"
           inkscape:connector-curvature="0"
           sodipodi:nodetypes="sssss" />
        <path
           sodipodi:nodetypes="sssss"
           inkscape:connector-curvature="0"
           id="path4309"
           d="m 190.5552,500.80454 c -0.93855,-3.50272 -1.68184,-7.91563 -3.4332,-7.44637 -1.75136,0.46928 -3.81493,5.76501 -2.87638,9.26775 0.93856,3.50273 2.66164,4.25429 4.41301,3.78502 1.75136,-0.46929 2.83512,-2.10367 1.89657,-5.6064 z"
           style="opacity:1;fill:#ffd68b;fill-opacity:1;stroke:#000000;stroke-width:1.29999995;stroke-linecap:square;stroke-linejoin:round;stroke-miterlimit:4;stroke-dasharray:none;stroke-dashoffset:0;stroke-opacity:1" />
        <path
           style="opacity:1;fill:#ffbd55;fill-opacity:1;stroke:#000000;stroke-width:1.29999995;stroke-linecap:square;stroke-linejoin:round;stroke-miterlimit:4;stroke-dasharray:none;stroke-dashoffset:0;stroke-opacity:1"
           d="m 185.14648,414.04883 c -5.76173,0 -11.28827,0.99226 -16.43359,2.79687 -1.76629,-1.36585 -3.83582,-2.21917 -5.46289,-1.7832 -2.20555,0.59098 -3.81875,3.6094 -4.34766,6.49414 -14.05398,8.76978 -23.41211,24.36238 -23.41211,42.14844 0,20.93628 12.96433,32.67952 31.29688,37.06836 -0.20105,1.26144 -0.2276,2.55223 0.0703,3.66406 0.93856,3.50273 2.66074,4.25247 4.41211,3.7832 1.75136,-0.46929 2.83504,-2.10274 1.89649,-5.60547 -0.0567,-0.21167 -0.11046,-0.43724 -0.16602,-0.65429 3.88821,0.55967 7.95482,0.83594 12.14648,0.83594 3.95963,0 7.8062,-0.2513 11.49805,-0.75 -0.09,0.35782 -0.17886,0.72269 -0.27148,1.06835 -0.93855,3.50273 0.14512,5.13618 1.89648,5.60547 1.75137,0.46927 3.4755,-0.28047 4.41406,-3.7832 0.32239,-1.20316 0.2732,-2.61662 0.0215,-3.97461 18.75681,-4.23554 32.09765,-16.01659 32.09765,-37.25781 0,-18.27479 -9.87796,-34.23216 -24.58007,-42.85352 -0.67834,-2.56502 -2.16653,-5.01324 -4.12891,-5.53906 -1.46456,-0.39243 -3.28788,0.26449 -4.92578,1.39453 -5.02809,-1.71363 -10.41341,-2.6582 -16.02149,-2.6582 z"
           id="path4311"
           inkscape:connector-curvature="0" />
        <g
           id="g4445">
          <circle
             style="opacity:1;fill:#ffd68b;fill-opacity:1;stroke:none;stroke-width:1.29999995;stroke-linecap:square;stroke-linejoin:round;stroke-miterlimit:4;stroke-dasharray:none;stroke-dashoffset:0;stroke-opacity:1"
             id="path4423"
             cx="162.5"
             cy="455.86221"
             r="13.75" />
          <circle
             r="13.75"
             cy="455.61221"
             cx="203.5"
             id="circle4425"
             style="opacity:1;fill:#ffd68b;fill-opacity:1;stroke:none;stroke-width:1.29999995;stroke-linecap:square;stroke-linejoin:round;stroke-miterlimit:4;stroke-dasharray:none;stroke-dashoffset:0;stroke-opacity:1" />
        </g>
        <g
           id="g4313"
           transform="matrix(1.2749048,0,0,1.2749048,-186.04207,-132.16155)">
          <path
             style="opacity:1;fill:#ff8080;fill-opacity:1;stroke:#000000;stroke-width:1.01968396;stroke-linecap:square;stroke-linejoin:round;stroke-miterlimit:4;stroke-dasharray:none;stroke-dashoffset:0;stroke-opacity:1"
             d="m 289.32422,460.34512 c -0.71016,1.02736 -1.74267,1.78447 -2.94922,2.01367 l 0,3.07813 0.0117,0 a 3,3 0 0 0 2.99805,2.94531 3,3 0 0 0 3,-3 3,3 0 0 0 -0.01,-0.24219 l 0,-2.76172 c -1.25046,-0.20452 -2.3207,-0.97679 -3.05078,-2.0332 z"
             id="path4315"
             inkscape:connector-curvature="0" />
          <path
             style="color:#000000;font-style:normal;font-variant:normal;font-weight:normal;font-stretch:normal;font-size:medium;line-height:normal;font-family:sans-serif;text-indent:0;text-align:start;text-decoration:none;text-decoration-line:none;text-decoration-style:solid;text-decoration-color:#000000;letter-spacing:normal;word-spacing:normal;text-transform:none;direction:ltr;block-progression:tb;writing-mode:lr-tb;baseline-shift:baseline;text-anchor:start;white-space:normal;clip-rule:nonzero;display:inline;overflow:visible;visibility:visible;opacity:1;isolation:auto;mix-blend-mode:normal;color-interpolation:sRGB;color-interpolation-filters:linearRGB;solid-color:#000000;solid-opacity:1;fill:#000000;fill-opacity:1;fill-rule:nonzero;stroke:none;stroke-width:1;stroke-linecap:square;stroke-linejoin:round;stroke-miterlimit:4;stroke-dasharray:none;stroke-dashoffset:0;stroke-opacity:1;color-rendering:auto;image-rendering:auto;shape-rendering:auto;text-rendering:auto;enable-background:accumulate"
             d="m 281.17383,459.54883 c 0.52886,1.97167 2.31597,3.4375 4.45117,3.4375 1.52975,-0.002 2.84538,-0.85658 3.69922,-2.0918 0.85424,1.23606 2.17049,2.09056 3.70117,2.0918 2.13521,0 3.92232,-1.46583 4.45117,-3.4375 0.16188,-0.8497 -0.69271,-1.12101 -1.03906,0 -0.49138,1.41834 -1.82263,2.4375 -3.41211,2.4375 -1.38379,-0.001 -2.64327,-0.78852 -3.25195,-2.03125 -0.18281,-0.37385 -0.71563,-0.37385 -0.89844,0 -0.60841,1.24218 -1.86683,2.02947 -3.25,2.03125 -1.58948,0 -2.92072,-1.01916 -3.41211,-2.4375 -0.4783,-1.12357 -1.1642,-0.70396 -1.03906,0 z"
             id="path4317"
             inkscape:connector-curvature="0"
             sodipodi:nodetypes="cccccccccccc" />
          <path
             sodipodi:nodetypes="sssss"
             inkscape:connector-curvature="0"
             id="path4319"
             d="m 292.57173,457.31566 c 10e-6,0.8717 -1.46984,2.64979 -3.28299,2.6498 -1.81316,0 -3.28301,-1.68881 -3.283,-2.56052 0,-0.8717 1.46985,-0.6855 3.283,-0.6855 1.81314,0 3.28299,-0.27549 3.28299,0.59622 z"
             style="opacity:1;fill:#000000;fill-opacity:1;stroke:none;stroke-width:1;stroke-linecap:square;stroke-linejoin:round;stroke-miterlimit:4;stroke-dasharray:none;stroke-dashoffset:0;stroke-opacity:1" />
          <circle
             r="1.9375"
             cy="450.86221"
             cx="282.1875"
             id="circle4321"
             style="opacity:1;fill:#000000;fill-opacity:1;stroke:none;stroke-width:1;stroke-linecap:square;stroke-linejoin:round;stroke-miterlimit:4;stroke-dasharray:none;stroke-dashoffset:0;stroke-opacity:1" />
          <circle
             style="opacity:1;fill:#000000;fill-opacity:1;stroke:none;stroke-width:1;stroke-linecap:square;stroke-linejoin:round;stroke-miterlimit:4;stroke-dasharray:none;stroke-dashoffset:0;stroke-opacity:1"
             id="circle4323"
             cx="296.38751"
             cy="450.86221"
             r="1.9375" />
        </g>
      </g>
    </g>
    <g
       id="g4646"
       transform="matrix(0.96592589,0.25881907,-0.25881907,0.96592589,87.623205,-238.48617)">
      <circle
         r="17.147339"
         cy="479.42892"
         cx="44.724503"
         id="path4633"
         style="opacity:1;fill:#ff7f2a;fill-opacity:1;stroke:#000000;stroke-width:1.29999995;stroke-linecap:square;stroke-linejoin:round;stroke-miterlimit:4;stroke-dasharray:none;stroke-dashoffset:0;stroke-opacity:1" />
      <path
         inkscape:connector-curvature="0"
         id="path4635"
         d="m 54.094417,456.27094 a 11.136931,11.136931 0 0 0 -9.94336,6.15039 11.136931,11.136931 0 0 0 9.94336,6.12304 11.136931,11.136931 0 0 0 9.941406,-6.14648 11.136931,11.136931 0 0 0 -9.941406,-6.12695 z"
         style="opacity:1;fill:#5fd38d;fill-opacity:1;stroke:#000000;stroke-width:1.29999995;stroke-linecap:square;stroke-linejoin:round;stroke-miterlimit:4;stroke-dasharray:none;stroke-dashoffset:0;stroke-opacity:1" />
      <ellipse
         ry="0.88388348"
         rx="1.4301536"
         cy="492.86395"
         cx="44.740444"
         id="path4642"
         style="opacity:1;fill:#000000;fill-opacity:1;stroke:none;stroke-width:1.29999995;stroke-linecap:square;stroke-linejoin:round;stroke-miterlimit:4;stroke-dasharray:none;stroke-dashoffset:0;stroke-opacity:1" />
    </g>
  </g>
</svg>
