<?xml version="1.0" encoding="UTF-8" standalone="no"?>
<!-- Created with Inkscape (http://www.inkscape.org/) -->

<svg
   xmlns:dc="http://purl.org/dc/elements/1.1/"
   xmlns:cc="http://creativecommons.org/ns#"
   xmlns:rdf="http://www.w3.org/1999/02/22-rdf-syntax-ns#"
   xmlns:svg="http://www.w3.org/2000/svg"
   xmlns="http://www.w3.org/2000/svg"
   xmlns:sodipodi="http://sodipodi.sourceforge.net/DTD/sodipodi-0.dtd"
   xmlns:inkscape="http://www.inkscape.org/namespaces/inkscape"
   width="210mm"
   height="297mm"
   viewBox="0 0 744.09448819 1052.3622047"
   id="svg7235"
   version="1.1"
   inkscape:version="0.91 r13725"
   sodipodi:docname="camquat-bush.svg">
  <defs
     id="defs7237" />
  <sodipodi:namedview
     id="base"
     pagecolor="#ffffff"
     bordercolor="#666666"
     borderopacity="1.0"
     inkscape:pageopacity="0.0"
     inkscape:pageshadow="2"
     inkscape:zoom="1"
     inkscape:cx="272.1484"
     inkscape:cy="800.81632"
     inkscape:document-units="px"
     inkscape:current-layer="layer1"
     showgrid="false"
     inkscape:window-width="1680"
     inkscape:window-height="1005"
     inkscape:window-x="53"
     inkscape:window-y="0"
     inkscape:window-maximized="0"
     showguides="true"
     inkscape:guide-bbox="true" />
  <metadata
     id="metadata7240">
    <rdf:RDF>
      <cc:Work
         rdf:about="">
        <dc:format>image/svg+xml</dc:format>
        <dc:type
           rdf:resource="http://purl.org/dc/dcmitype/StillImage" />
        <dc:title></dc:title>
      </cc:Work>
    </rdf:RDF>
  </metadata>
  <g
     inkscape:label="Layer 1"
     inkscape:groupmode="layer"
     id="layer1">
    <rect
       style="opacity:1;fill:#ffe6d5;fill-opacity:1;stroke:none;stroke-width:1.29999995;stroke-linecap:round;stroke-linejoin:round;stroke-miterlimit:4;stroke-dasharray:none;stroke-dashoffset:0;stroke-opacity:1"
       id="rect5204"
       width="611.50818"
       height="611.50818"
       x="-46.754089"
       y="-90.391891"
       inkscape:export-filename="/Users/benjaminrobinson/Desktop/camquat-dog-bush-nemesis.png"
       inkscape:export-xdpi="294.35416"
       inkscape:export-ydpi="294.35416" />
    <g
       transform="matrix(0.999995,0,0,1,-14.839554,-89.128802)"
       id="g6142">
      <path
         sodipodi:nodetypes="sssss"
         inkscape:connector-curvature="0"
         id="path6144"
         d="m 231.23037,427.89286 c 2.37232,10.90891 -5.04705,29.76363 -16.27451,24.49397 -12.62652,-5.92631 -0.88655,-19.52987 -3.45217,-17.26085 -28.87193,25.53415 -34.70371,-17.5883 -12.0004,-23.50763 13.82765,-3.60521 28.91362,3.33709 31.72708,16.27451 z"
         style="opacity:1;fill:#ffd68b;fill-opacity:1;stroke:#000000;stroke-width:1.29999995;stroke-linecap:square;stroke-linejoin:round;stroke-miterlimit:4;stroke-dasharray:none;stroke-dashoffset:0;stroke-opacity:1" />
      <path
         sodipodi:nodetypes="sssss"
         inkscape:connector-curvature="0"
         id="path6146"
         d="m 212.11599,499.76901 c 0.93855,-3.50272 1.68184,-7.91563 3.4332,-7.44637 1.75136,0.46928 3.81493,5.76501 2.87638,9.26775 -0.93856,3.50273 -2.66164,4.25429 -4.41301,3.78502 -1.75136,-0.46929 -2.83512,-2.10367 -1.89657,-5.6064 z"
         style="opacity:1;fill:#ffd68b;fill-opacity:1;stroke:#000000;stroke-width:1.29999995;stroke-linecap:square;stroke-linejoin:round;stroke-miterlimit:4;stroke-dasharray:none;stroke-dashoffset:0;stroke-opacity:1" />
      <path
         style="opacity:1;fill:#ffd68b;fill-opacity:1;stroke:#000000;stroke-width:1.29999995;stroke-linecap:square;stroke-linejoin:round;stroke-miterlimit:4;stroke-dasharray:none;stroke-dashoffset:0;stroke-opacity:1"
         d="m 190.5552,500.80454 c -0.93855,-3.50272 -1.68184,-7.91563 -3.4332,-7.44637 -1.75136,0.46928 -3.81493,5.76501 -2.87638,9.26775 0.93856,3.50273 2.66164,4.25429 4.41301,3.78502 1.75136,-0.46929 2.83512,-2.10367 1.89657,-5.6064 z"
         id="path6149"
         inkscape:connector-curvature="0"
         sodipodi:nodetypes="sssss" />
      <path
         inkscape:connector-curvature="0"
         id="path6151"
         d="m 185.14648,414.04883 c -5.76173,0 -11.28827,0.99226 -16.43359,2.79687 -1.76629,-1.36585 -3.83582,-2.21917 -5.46289,-1.7832 -2.20555,0.59098 -3.81875,3.6094 -4.34766,6.49414 -14.05398,8.76978 -23.41211,24.36238 -23.41211,42.14844 0,20.93628 12.96433,32.67952 31.29688,37.06836 -0.20105,1.26144 -0.2276,2.55223 0.0703,3.66406 0.93856,3.50273 2.66074,4.25247 4.41211,3.7832 1.75136,-0.46929 2.83504,-2.10274 1.89649,-5.60547 -0.0567,-0.21167 -0.11046,-0.43724 -0.16602,-0.65429 3.88821,0.55967 7.95482,0.83594 12.14648,0.83594 3.95963,0 7.8062,-0.2513 11.49805,-0.75 -0.09,0.35782 -0.17886,0.72269 -0.27148,1.06835 -0.93855,3.50273 0.14512,5.13618 1.89648,5.60547 1.75137,0.46927 3.4755,-0.28047 4.41406,-3.7832 0.32239,-1.20316 0.2732,-2.61662 0.0215,-3.97461 18.75681,-4.23554 32.09765,-16.01659 32.09765,-37.25781 0,-18.27479 -9.87796,-34.23216 -24.58007,-42.85352 -0.67834,-2.56502 -2.16653,-5.01324 -4.12891,-5.53906 -1.46456,-0.39243 -3.28788,0.26449 -4.92578,1.39453 -5.02809,-1.71363 -10.41341,-2.6582 -16.02149,-2.6582 z"
         style="opacity:1;fill:#ffbd55;fill-opacity:1;stroke:#000000;stroke-width:1.29999995;stroke-linecap:square;stroke-linejoin:round;stroke-miterlimit:4;stroke-dasharray:none;stroke-dashoffset:0;stroke-opacity:1" />
      <ellipse
         style="opacity:1;fill:#ffd68b;fill-opacity:1;stroke:none;stroke-width:1.29999995;stroke-linecap:square;stroke-linejoin:round;stroke-miterlimit:4;stroke-dasharray:none;stroke-dashoffset:0;stroke-opacity:1"
         id="circle6155"
         cx="162.5"
         cy="456.80615"
         rx="13.75"
         ry="12.098957" />
      <ellipse
         cy="456.58615"
         cx="203.5"
         id="circle6157"
         style="opacity:1;fill:#ffd68b;fill-opacity:1;stroke:none;stroke-width:1.29999995;stroke-linecap:square;stroke-linejoin:round;stroke-miterlimit:4;stroke-dasharray:none;stroke-dashoffset:0;stroke-opacity:1"
         rx="13.75"
         ry="12.098957" />
      <g
         transform="matrix(1.2749048,0,0,1.2749048,-186.04207,-132.16155)"
         id="g6159">
        <path
           style="opacity:1;fill:#000000;fill-opacity:1;stroke:none;stroke-width:1;stroke-linecap:square;stroke-linejoin:round;stroke-miterlimit:4;stroke-dasharray:none;stroke-dashoffset:0;stroke-opacity:1"
           d="m 292.57173,457.31566 c 10e-6,0.8717 -1.46984,2.64979 -3.28299,2.6498 -1.81316,0 -3.28301,-1.68881 -3.283,-2.56052 0,-0.8717 1.46985,-0.6855 3.283,-0.6855 1.81314,0 3.28299,-0.27549 3.28299,0.59622 z"
           id="path6163"
           inkscape:connector-curvature="0"
           sodipodi:nodetypes="sssss" />
        <circle
           style="opacity:1;fill:#000000;fill-opacity:1;stroke:none;stroke-width:1;stroke-linecap:square;stroke-linejoin:round;stroke-miterlimit:4;stroke-dasharray:none;stroke-dashoffset:0;stroke-opacity:1"
           id="circle6165"
           cx="282.1875"
           cy="455.56848"
           r="1.9375" />
        <circle
           r="1.9375"
           cy="455.56848"
           cx="296.38751"
           id="circle6167"
           style="opacity:1;fill:#000000;fill-opacity:1;stroke:none;stroke-width:1;stroke-linecap:square;stroke-linejoin:round;stroke-miterlimit:4;stroke-dasharray:none;stroke-dashoffset:0;stroke-opacity:1" />
        <path
           style="opacity:1;fill:#000000;fill-opacity:1;stroke:none;stroke-width:1.27499998;stroke-linecap:round;stroke-linejoin:round;stroke-miterlimit:4;stroke-dasharray:none;stroke-dashoffset:0;stroke-opacity:1"
           d="m 296.89587,461.78012 c -10e-6,1.34703 -3.43136,1.17752 -7.66415,1.17752 -4.2328,0 -7.66414,0.16951 -7.66415,-1.17752 1e-5,-1.34703 3.43135,-1.99377 7.66415,-1.99377 4.23279,0 7.66414,0.64674 7.66415,1.99377 z"
           id="path6213"
           inkscape:connector-curvature="0"
           sodipodi:nodetypes="cscsc" />
        <path
           style="opacity:1;fill:#ffffff;fill-opacity:1;stroke:none;stroke-width:1.29999995;stroke-linecap:square;stroke-linejoin:round;stroke-miterlimit:4;stroke-dasharray:none;stroke-dashoffset:0;stroke-opacity:1"
           d="m 286.55208,461.8029 c 0,-0.65713 -0.32922,-1.18982 -0.73535,-1.18982 -0.40612,0 -0.73534,0.53269 -0.73534,1.18982 0,0.65712 0.32922,0.79763 0.73534,0.79763 0.40613,0 0.73535,-0.14051 0.73535,-0.79763 z"
           id="path6138-4"
           inkscape:connector-curvature="0"
           sodipodi:nodetypes="sssss" />
        <path
           sodipodi:nodetypes="sssss"
           inkscape:connector-curvature="0"
           id="path6140-4"
           d="m 293.70395,461.8029 c 0,-0.65713 -0.32922,-1.18982 -0.73535,-1.18982 -0.40612,0 -0.73535,0.53269 -0.73535,1.18982 0,0.65712 0.32923,0.79763 0.73535,0.79763 0.40613,0 0.73535,-0.14051 0.73535,-0.79763 z"
           style="opacity:1;fill:#ffffff;fill-opacity:1;stroke:none;stroke-width:1.29999995;stroke-linecap:square;stroke-linejoin:round;stroke-miterlimit:4;stroke-dasharray:none;stroke-dashoffset:0;stroke-opacity:1" />
      </g>
    </g>
    <g
       id="g6880"
       transform="translate(-356.03555,-320.279)">
      <path
         sodipodi:nodetypes="sssss"
         inkscape:connector-curvature="0"
         id="path6882"
         d="m 525.23139,513.23199 c -0.93855,-3.50272 -1.68184,-7.91563 -3.4332,-7.44637 -1.75136,0.46928 -3.81493,5.76501 -2.87638,9.26775 0.93856,3.50273 2.66164,4.25429 4.41301,3.78502 1.75136,-0.46929 2.83512,-2.10367 1.89657,-5.6064 z"
         style="opacity:1;fill:#ffd68b;fill-opacity:1;stroke:#000000;stroke-width:1.29999995;stroke-linecap:square;stroke-linejoin:round;stroke-miterlimit:4;stroke-dasharray:none;stroke-dashoffset:0;stroke-opacity:1" />
      <path
         style="opacity:1;fill:#ffd68b;fill-opacity:1;stroke:#000000;stroke-width:1.29999995;stroke-linecap:square;stroke-linejoin:round;stroke-miterlimit:4;stroke-dasharray:none;stroke-dashoffset:0;stroke-opacity:1"
         d="m 547.85284,512.02488 c 0.93855,-3.50272 1.68184,-7.91563 3.4332,-7.44637 1.75136,0.46928 3.81493,5.76501 2.87638,9.26775 -0.93856,3.50273 -2.66164,4.25429 -4.41301,3.78502 -1.75136,-0.46929 -2.83512,-2.10367 -1.89657,-5.6064 z"
         id="path6884"
         inkscape:connector-curvature="0"
         sodipodi:nodetypes="sssss" />
      <path
         style="opacity:1;fill:#ffbd55;fill-opacity:1;stroke:#000000;stroke-width:1.29999995;stroke-linecap:square;stroke-linejoin:round;stroke-miterlimit:4;stroke-dasharray:none;stroke-dashoffset:0;stroke-opacity:1"
         d="m 526.3418,425.19922 c -11.69052,0 -22.42863,4.05067 -30.91211,10.81055 -1.32839,-0.89616 -2.7509,-1.40384 -3.98633,-1.17774 -3.29266,0.60262 -5.74129,6.50618 -5.13867,9.79883 0.0404,0.2208 0.0969,0.42913 0.16406,0.62891 -6.14467,8.26515 -9.7832,18.50528 -9.7832,29.5957 0,20.93628 12.96432,32.67952 31.29687,37.06836 -0.20104,1.26144 -0.2276,2.55027 0.0703,3.66211 0.93856,3.50273 2.66074,4.25442 4.41211,3.78515 1.75136,-0.46929 2.83504,-2.10274 1.89649,-5.60547 -0.0567,-0.21153 -0.1105,-0.43739 -0.16602,-0.65429 3.88821,0.55967 7.95483,0.83398 12.14649,0.83398 3.95968,0 7.80615,-0.25128 11.49804,-0.75 -0.0901,0.35821 -0.17876,0.72429 -0.27148,1.07031 -0.93855,3.50273 0.14512,5.13618 1.89648,5.60547 1.75137,0.46927 3.47551,-0.28242 4.41407,-3.78515 0.32238,-1.20316 0.27319,-2.61467 0.0215,-3.97266 18.75681,-4.23553 32.09766,-16.01659 32.09766,-37.25781 0,-27.42438 -22.23187,-49.65625 -49.65625,-49.65625 z"
         id="path6886"
         inkscape:connector-curvature="0" />
      <path
         style="opacity:1;fill:#ffd68b;fill-opacity:1;stroke:#000000;stroke-width:1.29999995;stroke-linecap:square;stroke-linejoin:round;stroke-miterlimit:4;stroke-dasharray:none;stroke-dashoffset:0;stroke-opacity:1"
         d="m 585.92708,461.03352 c 2.37232,10.90891 -5.04705,29.76363 -16.27451,24.49397 -12.62652,-5.92631 -0.88655,-19.52987 -3.45217,-17.26085 -28.87193,25.53415 -34.70371,-17.5883 -12.0004,-23.50763 13.82765,-3.60521 28.91362,3.33709 31.72708,16.27451 z"
         id="path6888"
         inkscape:connector-curvature="0"
         sodipodi:nodetypes="sssss" />
      <g
         id="g6890"
         transform="matrix(0.99936845,0.03553439,-0.03553439,0.99936845,329.5221,10.450741)">
        <circle
           style="opacity:1;fill:#ffd68b;fill-opacity:1;stroke:none;stroke-width:1.29999995;stroke-linecap:square;stroke-linejoin:round;stroke-miterlimit:4;stroke-dasharray:none;stroke-dashoffset:0;stroke-opacity:1"
           id="circle6892"
           cx="203.5"
           cy="455.61221"
           r="13.75" />
      </g>
      <path
         style="opacity:1;fill:#ffd68b;fill-opacity:1;stroke:none;stroke-width:1.29999995;stroke-linecap:square;stroke-linejoin:round;stroke-miterlimit:4;stroke-dasharray:none;stroke-dashoffset:0;stroke-opacity:1"
         d="m 479.99147,458.98633 c -1.68079,4.98474 -2.60547,10.31746 -2.60547,15.86914 0,4.21473 0.53118,8.05388 1.51953,11.53906 a 13.75,13.75 0 0 0 13.47656,-13.25391 13.75,13.75 0 0 0 -12.39062,-14.15429 z"
         id="path6894"
         inkscape:connector-curvature="0" />
      <g
         id="g6896"
         transform="matrix(1.2749048,0,0,1.2749048,136.76837,-118.31535)">
        <path
           sodipodi:nodetypes="sssss"
           inkscape:connector-curvature="0"
           id="path6902"
           d="m 285.04883,457.59298 c 10e-6,0.8717 -1.46984,2.64979 -3.28299,2.6498 -1.81316,0 -3.28301,-1.68881 -3.283,-2.56052 0,-0.8717 1.46985,-0.6855 3.283,-0.6855 1.81314,0 3.28299,-0.27549 3.28299,0.59622 z"
           style="opacity:1;fill:#000000;fill-opacity:1;stroke:none;stroke-width:1;stroke-linecap:square;stroke-linejoin:round;stroke-miterlimit:4;stroke-dasharray:none;stroke-dashoffset:0;stroke-opacity:1" />
        <circle
           r="1.9375"
           cy="452.03876"
           cx="276.69687"
           id="circle6904"
           style="opacity:1;fill:#000000;fill-opacity:1;stroke:none;stroke-width:1;stroke-linecap:square;stroke-linejoin:round;stroke-miterlimit:4;stroke-dasharray:none;stroke-dashoffset:0;stroke-opacity:1" />
        <circle
           style="opacity:1;fill:#000000;fill-opacity:1;stroke:none;stroke-width:1;stroke-linecap:square;stroke-linejoin:round;stroke-miterlimit:4;stroke-dasharray:none;stroke-dashoffset:0;stroke-opacity:1"
           id="circle6906"
           cx="289.32812"
           cy="452.03876"
           r="1.9375" />
        <ellipse
           style="opacity:1;fill:#000000;fill-opacity:1;stroke:none;stroke-width:1.29999995;stroke-linecap:round;stroke-linejoin:round;stroke-miterlimit:4;stroke-dasharray:none;stroke-dashoffset:0;stroke-opacity:1"
           id="path6912"
           cx="282.14545"
           cy="462.87076"
           rx="0.78437227"
           ry="0.68632573" />
      </g>
      <path
         sodipodi:nodetypes="csccscsccsc"
         inkscape:connector-curvature="0"
         id="path6908"
         d="m 516.91731,435.71874 c 1.99375,0.33037 3.53526,2.119 4.56888,4.16909 0.38006,0.75383 0.693,1.55113 0.92284,2.34986 0.37007,1.08478 -0.84617,2.63601 -1.44838,-0.21892 -0.17702,-0.52656 -0.38617,-1.04892 -0.63577,-1.544 -0.92895,-1.8425 -2.3105,-3.2576 -3.61906,-3.47441 -1.30856,-0.2168 -3.14931,0.67357 -4.68446,2.11072 -0.44954,0.42084 -0.86387,0.88739 -1.24003,1.36911 -0.83681,1.40748 -2.11008,1.02248 -1.47349,-0.22271 0.52428,-0.74445 1.14417,-1.4564 1.82571,-2.09442 1.70253,-1.59385 3.78998,-2.77466 5.78376,-2.44432 z"
         style="color:#000000;font-style:normal;font-variant:normal;font-weight:normal;font-stretch:normal;font-size:medium;line-height:normal;font-family:sans-serif;text-indent:0;text-align:start;text-decoration:none;text-decoration-line:none;text-decoration-style:solid;text-decoration-color:#000000;letter-spacing:normal;word-spacing:normal;text-transform:none;direction:ltr;block-progression:tb;writing-mode:lr-tb;baseline-shift:baseline;text-anchor:start;white-space:normal;clip-rule:nonzero;display:inline;overflow:visible;visibility:visible;opacity:1;isolation:auto;mix-blend-mode:normal;color-interpolation:sRGB;color-interpolation-filters:linearRGB;solid-color:#000000;solid-opacity:1;fill:#000000;fill-opacity:1;fill-rule:nonzero;stroke:none;stroke-width:1.29999995;stroke-linecap:square;stroke-linejoin:round;stroke-miterlimit:4;stroke-dasharray:none;stroke-dashoffset:0;stroke-opacity:1;color-rendering:auto;image-rendering:auto;shape-rendering:auto;text-rendering:auto;enable-background:accumulate" />
    </g>
    <g
       id="g6914"
       transform="translate(109.02309,-472.30633)">
      <path
         style="opacity:1;fill:#ffd68b;fill-opacity:1;stroke:#000000;stroke-width:1.29999995;stroke-linecap:square;stroke-linejoin:round;stroke-miterlimit:4;stroke-dasharray:none;stroke-dashoffset:0;stroke-opacity:1"
         d="m 333.4324,661.81778 c -0.93855,-3.50272 -1.68184,-7.91563 -3.4332,-7.44637 -1.75136,0.46928 -3.81493,5.76501 -2.87638,9.26775 0.93856,3.50273 2.66164,4.25429 4.41301,3.78502 1.75136,-0.46929 2.83512,-2.10367 1.89657,-5.6064 z"
         id="path6916"
         inkscape:connector-curvature="0"
         sodipodi:nodetypes="sssss" />
      <path
         sodipodi:nodetypes="sssss"
         inkscape:connector-curvature="0"
         id="path6918"
         d="m 354.99319,664.85331 c 0.93855,-3.50272 1.68184,-7.91563 3.4332,-7.44637 1.75136,0.46928 3.81493,5.76501 2.87638,9.26775 -0.93856,3.50273 -2.66164,4.25429 -4.41301,3.78502 -1.75136,-0.46929 -2.83512,-2.10367 -1.89657,-5.6064 z"
         style="opacity:1;fill:#ffd68b;fill-opacity:1;stroke:#000000;stroke-width:1.29999995;stroke-linecap:square;stroke-linejoin:round;stroke-miterlimit:4;stroke-dasharray:none;stroke-dashoffset:0;stroke-opacity:1" />
      <path
         style="opacity:1;fill:#ffbd55;fill-opacity:1;stroke:#000000;stroke-width:1.29999995;stroke-linecap:square;stroke-linejoin:round;stroke-miterlimit:4;stroke-dasharray:none;stroke-dashoffset:0;stroke-opacity:1"
         d="m 356.2832,577.22656 c -5.76126,0 -11.28862,0.99254 -16.43359,2.79688 -1.76629,-1.36585 -3.83582,-2.21918 -5.46289,-1.78321 -2.20599,0.5911 -3.82103,3.60889 -4.34961,6.49415 -14.0534,8.7699 -23.41016,24.36282 -23.41016,42.14843 0,20.93659 12.9639,32.67967 31.29688,37.06836 -0.20107,1.26149 -0.22957,2.55024 0.0684,3.66211 0.93856,3.50273 2.66269,4.25443 4.41406,3.78516 1.75136,-0.46929 2.83503,-2.10274 1.89648,-5.60547 -0.0567,-0.21164 -0.11046,-0.43729 -0.16601,-0.6543 3.88763,0.55949 7.95551,0.83594 12.14648,0.83594 3.95969,0 7.80615,-0.25323 11.49805,-0.75195 -0.0901,0.35845 -0.1787,0.72405 -0.27148,1.07031 -0.93855,3.50273 0.14512,5.13618 1.89648,5.60547 1.75137,0.46927 3.47355,-0.28243 4.41211,-3.78516 0.32238,-1.20316 0.27515,-2.61467 0.0234,-3.97266 18.7566,-4.23561 32.09765,-16.01673 32.09765,-37.25781 0,-18.27437 -9.87851,-34.23202 -24.58007,-42.85351 -0.67834,-2.56503 -2.16848,-5.01325 -4.13086,-5.53907 -1.46456,-0.39242 -3.28593,0.2645 -4.92383,1.39454 -5.02832,-1.71381 -10.41312,-2.65821 -16.02149,-2.65821 z"
         id="path6920"
         inkscape:connector-curvature="0" />
      <path
         sodipodi:nodetypes="sssss"
         inkscape:connector-curvature="0"
         id="path6922"
         d="m 386.60296,613.15484 c 2.37232,10.90891 -5.04705,29.76363 -16.27451,24.49397 -12.62652,-5.92631 -0.88655,-19.52987 -3.45217,-17.26085 -28.87193,25.53415 -34.70371,-17.5883 -12.0004,-23.50763 13.82765,-3.60521 28.91362,3.33709 31.72708,16.27451 z"
         style="opacity:1;fill:#ffd68b;fill-opacity:1;stroke:#000000;stroke-width:1.29999995;stroke-linecap:square;stroke-linejoin:round;stroke-miterlimit:4;stroke-dasharray:none;stroke-dashoffset:0;stroke-opacity:1" />
    </g>
    <g
       id="g6952"
       transform="translate(-58.14784,-575.89351)"
       inkscape:export-filename="/Users/benjaminrobinson/Desktop/favicon.png"
       inkscape:export-xdpi="894.30133"
       inkscape:export-ydpi="894.30133">
      <path
         sodipodi:nodetypes="sssss"
         inkscape:connector-curvature="0"
         id="path6954"
         d="m 547.33801,987.73279 c 0.93855,-3.50272 1.68184,-7.91563 3.4332,-7.44637 1.75136,0.46928 3.81493,5.76501 2.87638,9.26775 -0.93856,3.50275 -2.66164,4.25425 -4.41301,3.78505 -1.75136,-0.4693 -2.83512,-2.1037 -1.89657,-5.60643 z"
         style="opacity:1;fill:#ffd68b;fill-opacity:1;stroke:#000000;stroke-width:1.29999995;stroke-linecap:square;stroke-linejoin:round;stroke-miterlimit:4;stroke-dasharray:none;stroke-dashoffset:0;stroke-opacity:1" />
      <path
         style="opacity:1;fill:#ffd68b;fill-opacity:1;stroke:#000000;stroke-width:1.29999995;stroke-linecap:square;stroke-linejoin:round;stroke-miterlimit:4;stroke-dasharray:none;stroke-dashoffset:0;stroke-opacity:1"
         d="m 525.77722,988.76832 c -0.93855,-3.50272 -1.68184,-7.91563 -3.4332,-7.44637 -1.75136,0.46928 -3.81493,5.76501 -2.87638,9.26775 0.93856,3.50272 2.66164,4.25432 4.41301,3.78502 1.75136,-0.4693 2.83512,-2.1037 1.89657,-5.6064 z"
         id="path6956"
         inkscape:connector-curvature="0"
         sodipodi:nodetypes="sssss" />
      <path
         style="opacity:1;fill:#ffd68b;fill-opacity:1;stroke:#000000;stroke-width:1.29999995;stroke-linecap:square;stroke-linejoin:round;stroke-miterlimit:4;stroke-dasharray:none;stroke-dashoffset:0;stroke-opacity:1"
         d="m 563.28798,908.15758 c 2.37232,10.90891 -5.04705,29.76363 -16.27451,24.49397 -12.62652,-5.92631 -0.88655,-19.52987 -3.45217,-17.26085 -28.87193,25.53415 -34.70371,-17.5883 -12.0004,-23.50763 13.82765,-3.60521 28.91362,3.33709 31.72708,16.27451 z"
         id="path6958"
         inkscape:connector-curvature="0"
         sodipodi:nodetypes="sssss" />
      <path
         inkscape:connector-curvature="0"
         id="path6960"
         d="m 510.18261,895.7237 c -0.21434,0.0159 -0.42292,0.0494 -0.625,0.10352 -2.74176,0.73465 -4.56279,5.21529 -4.52734,8.5332 -18.29846,7.31882 -31.23243,25.19765 -31.23243,46.10938 0,20.93628 12.96433,32.67952 31.29688,37.06836 -0.20105,1.26144 -0.2276,2.55223 0.0703,3.66406 0.93856,3.5027 2.66074,4.2525 4.41211,3.7832 1.75136,-0.4693 2.83504,-2.1028 1.89649,-5.60547 -0.0567,-0.21167 -0.11046,-0.43724 -0.16602,-0.65429 3.88821,0.55967 7.95482,0.83594 12.14648,0.83594 3.95963,0 7.8062,-0.2513 11.49805,-0.75 -0.09,0.35782 -0.17886,0.72269 -0.27148,1.06835 -0.93855,3.50267 0.14512,5.13617 1.89648,5.60547 1.75137,0.4693 3.4755,-0.2805 4.41406,-3.7832 0.32239,-1.20317 0.2732,-2.61662 0.0215,-3.97461 18.75681,-4.23554 32.09765,-16.01659 32.09765,-37.25781 0,-21.27838 -13.38671,-39.42274 -32.19531,-46.49024 -0.18111,-3.22961 -1.94268,-7.21344 -4.51367,-7.90234 -2.70764,-0.72551 -6.63638,2.11545 -8.35352,4.95703 -1.51316,-0.13885 -3.04436,-0.2207 -4.59375,-0.2207 -1.80969,0 -3.59393,0.10425 -5.35351,0.29297 -1.48753,-2.73211 -5.15188,-5.58805 -7.91797,-5.38282 z"
         style="opacity:1;fill:#ffbd55;fill-opacity:1;stroke:#000000;stroke-width:1.29999995;stroke-linecap:square;stroke-linejoin:round;stroke-miterlimit:4;stroke-dasharray:none;stroke-dashoffset:0;stroke-opacity:1" />
      <g
         transform="translate(337.72497,489.58423)"
         id="g6962">
        <circle
           r="13.75"
           cy="455.86221"
           cx="162.5"
           id="circle6964"
           style="opacity:1;fill:#ffd68b;fill-opacity:1;stroke:none;stroke-width:1.29999995;stroke-linecap:square;stroke-linejoin:round;stroke-miterlimit:4;stroke-dasharray:none;stroke-dashoffset:0;stroke-opacity:1" />
        <circle
           style="opacity:1;fill:#ffd68b;fill-opacity:1;stroke:none;stroke-width:1.29999995;stroke-linecap:square;stroke-linejoin:round;stroke-miterlimit:4;stroke-dasharray:none;stroke-dashoffset:0;stroke-opacity:1"
           id="circle6966"
           cx="203.5"
           cy="455.61221"
           r="13.75" />
      </g>
      <path
         style="opacity:1;fill:#000000;fill-opacity:1;stroke:none;stroke-width:1;stroke-linecap:square;stroke-linejoin:round;stroke-miterlimit:4;stroke-dasharray:none;stroke-dashoffset:0;stroke-opacity:1"
         d="m 525.26664,931.63712 c 2e-5,1.11133 -1.8739,3.37823 -4.1855,3.37824 -2.3116,0 -4.18552,-2.15307 -4.18551,-3.26442 0,-1.11133 1.87392,-0.87395 4.18551,-0.87395 2.31158,0 4.1855,-0.35122 4.1855,0.76013 z"
         id="path6968"
         inkscape:connector-curvature="0"
         sodipodi:nodetypes="sssss" />
      <circle
         style="opacity:1;fill:#000000;fill-opacity:1;stroke:none;stroke-width:1;stroke-linecap:square;stroke-linejoin:round;stroke-miterlimit:4;stroke-dasharray:none;stroke-dashoffset:0;stroke-opacity:1"
         id="circle6970"
         cx="512.02777"
         cy="929.40955"
         r="2.4701281" />
      <circle
         r="2.4701281"
         cy="929.40955"
         cx="530.13141"
         id="circle6972"
         style="opacity:1;fill:#000000;fill-opacity:1;stroke:none;stroke-width:1;stroke-linecap:square;stroke-linejoin:round;stroke-miterlimit:4;stroke-dasharray:none;stroke-dashoffset:0;stroke-opacity:1" />
      <path
         sodipodi:nodetypes="cccccc"
         inkscape:connector-curvature="0"
         id="path6974"
         d="m 521.12597,935.43998 c -2.01681,2.16189 -5.65324,1.55594 -5.42383,4.06276 -4.3e-4,2.94098 2.38324,5.32553 5.32422,5.32618 2.94174,4.3e-4 4.91757,-2.32457 5.32617,-5.23779 0.28598,-2.22253 -4.20113,-2.37509 -5.22656,-4.15119 z"
         style="opacity:1;fill:#000000;fill-opacity:1;stroke:#000000;stroke-width:1.29999995;stroke-linecap:square;stroke-linejoin:round;stroke-miterlimit:4;stroke-dasharray:none;stroke-dashoffset:0;stroke-opacity:1" />
      <path
         sodipodi:nodetypes="sssss"
         inkscape:connector-curvature="0"
         id="path6976"
         d="m 519.25399,941.94624 c 0,-0.83777 -0.41973,-1.51691 -0.9375,-1.51691 -0.51777,0 -0.9375,0.67914 -0.9375,1.51691 0,0.83777 0.41973,1.01691 0.9375,1.01691 0.51777,0 0.9375,-0.17914 0.9375,-1.01691 z"
         style="opacity:1;fill:#ffffff;fill-opacity:1;stroke:none;stroke-width:1.29999995;stroke-linecap:square;stroke-linejoin:round;stroke-miterlimit:4;stroke-dasharray:none;stroke-dashoffset:0;stroke-opacity:1" />
      <path
         style="opacity:1;fill:#ffffff;fill-opacity:1;stroke:none;stroke-width:1.29999995;stroke-linecap:square;stroke-linejoin:round;stroke-miterlimit:4;stroke-dasharray:none;stroke-dashoffset:0;stroke-opacity:1"
         d="m 524.37195,941.94624 c 0,-0.83777 -0.41973,-1.51691 -0.9375,-1.51691 -0.51777,0 -0.9375,0.67914 -0.9375,1.51691 0,0.83777 0.41973,1.01691 0.9375,1.01691 0.51777,0 0.9375,-0.17914 0.9375,-1.01691 z"
         id="path6978"
         inkscape:connector-curvature="0"
         sodipodi:nodetypes="sssss" />
    </g>
    <g
       transform="translate(680.39414,-1062.8081)"
       id="g7163">
      <path
         sodipodi:nodetypes="ccccccccccccccccccccccccccccccccccccccccccscccccc"
         inkscape:connector-curvature="0"
         id="path6986"
         d="m -630.60156,1171.1465 c -2.893,10e-4 -5.60238,1.4177 -7.25391,3.793 -0.46275,0.1236 -0.92158,0.2559 -1.37891,0.3925 -1.93302,-2.4661 -5.2769,-4.6075 -7.66796,-3.9668 -3.00956,0.8065 -4.91749,6.1284 -4.46875,9.4688 -3.58819,0.064 -6.60733,1.3342 -8.02149,6.2695 -0.30105,-0.032 -0.60353,-0.048 -0.90625,-0.049 -4.54014,-10e-5 -8.34196,3.4395 -8.79492,7.957 -4.13282,0.8217 -7.11096,4.4465 -7.11523,8.6602 0.003,1.1764 0.24061,2.3404 0.69921,3.4238 -2.62763,1.6036 -4.23169,4.4588 -4.23437,7.5371 0.004,2.4131 0.99356,4.7198 2.74023,6.3848 -1.31338,1.5848 -2.03246,3.5784 -2.0332,5.6367 0.005,3.3587 1.9126,6.4244 4.92383,7.9121 -0.44953,1.0773 -0.6812,2.233 -0.68164,3.4004 -9.6e-4,4.2044 2.9598,7.8275 7.08008,8.6641 -0.004,0.058 -0.007,0.1171 -0.01,0.1757 5.2e-4,4.8816 3.95826,8.8385 8.83984,8.8379 0.9071,0 1.80828,-0.1463 2.67188,-0.4238 1.59228,2.6707 4.47074,4.3083 7.58008,4.3125 0.79927,7e-4 1.59493,-0.1071 2.36523,-0.3203 6e-4,2e-4 0.001,-2e-4 0.002,0 9.58995,5.9407 17.46986,2.023 22.24266,0.8193 5.88836,3.7136 14.18531,3.13 20.52687,-0.8896 0.84035,0.2585 1.71455,0.3901 2.59375,0.3906 3.10745,0 5.98473,-1.6388 7.57812,-4.3066 0.86516,0.2759 1.76768,0.4169 2.67578,0.4179 4.88082,-5e-4 8.83737,-3.9571 8.83789,-8.8379 -5.4e-4,-0.025 -10e-4,-0.051 -0.002,-0.076 4.43597,-0.5346 7.77537,-4.2956 7.78125,-8.7637 -0.004,-1.8166 -0.56838,-3.5877 -1.61523,-5.0723 2.74444,-1.5731 4.43898,-4.4929 4.44336,-7.6562 -0.003,-2.2314 -0.85024,-4.3789 -2.3711,-6.0117 1.51994,-1.6318 2.36691,-3.7778 2.3711,-6.0078 -0.004,-2.4502 -1.02585,-4.7887 -2.82032,-6.4571 0.46115,-1.0894 0.69892,-2.2603 0.69922,-3.4433 -5.2e-4,-4.8816 -3.95826,-8.8385 -8.83984,-8.8379 -0.11791,0 -0.23577,0.01 -0.35352,0.012 l 0,-0.012 c 5.9e-4,-4.8816 -3.95629,-8.8394 -8.83789,-8.8399 -0.26747,0 -0.53467,0.018 -0.80078,0.045 -1.36602,-3.3929 -3.91989,-5.0739 -7.37695,-5.4043 0.0871,-3.3298 -1.7486,-7.9214 -4.52735,-8.666 -2.18994,-0.5868 -5.17908,1.161 -7.15234,3.3536 -1.67091,-2.1845 -4.26344,-3.4667 -7.01367,-3.4688 -1.92005,0 -3.78695,0.6309 -5.31836,1.7891 -0.44244,-0.013 -0.88286,-0.032 -1.32813,-0.033 -1.59839,-1.3611 -3.62909,-2.1089 -5.72851,-2.1094 z"
         style="opacity:1;fill:#87deaa;fill-opacity:1;stroke:#000000;stroke-width:1.29999995;stroke-linecap:square;stroke-linejoin:round;stroke-miterlimit:4;stroke-dasharray:none;stroke-dashoffset:0;stroke-opacity:1" />
      <path
         sodipodi:nodetypes="ccc"
         inkscape:connector-curvature="0"
         id="path7053"
         d="m -652.30276,1220.4885 c -3.18109,4.9061 0.79642,12.5026 7.22682,10.0069 0.18341,5.6893 6.06477,10.0225 11.31818,6.7709"
         style="fill:none;fill-rule:evenodd;stroke:#000000;stroke-width:1.29999995;stroke-linecap:round;stroke-linejoin:round;stroke-miterlimit:4;stroke-dasharray:none;stroke-opacity:1" />
      <path
         sodipodi:nodetypes="cc"
         inkscape:connector-curvature="0"
         id="path7057"
         d="m -626.79042,1196.624 c 3.59508,-2.9268 11.34569,-1.5142 9.48647,6.0148"
         style="fill:none;fill-rule:evenodd;stroke:#000000;stroke-width:1.29999995;stroke-linecap:round;stroke-linejoin:miter;stroke-miterlimit:4;stroke-dasharray:none;stroke-opacity:1" />
      <path
         style="fill:none;fill-rule:evenodd;stroke:#000000;stroke-width:1.29999995;stroke-linecap:round;stroke-linejoin:round;stroke-miterlimit:4;stroke-dasharray:none;stroke-opacity:1"
         d="m -615.52988,1227.973 c 3.8249,4.7355 12.23993,3.5787 11.53636,-4.3906 7.19101,1.2954 10.25598,-5.3492 6.68948,-9.5276"
         id="path7092"
         inkscape:connector-curvature="0"
         sodipodi:nodetypes="ccc" />
      <path
         sodipodi:nodetypes="ccc"
         inkscape:connector-curvature="0"
         id="path7094"
         d="m -598.75,1228.1122 c 0.72834,4.8502 0.80236,9.2478 10.24319,8.5936 -0.0436,-9.2528 -4.15787,-9.675 -9.99381,-9.341"
         style="fill:#37c871;fill-opacity:1;fill-rule:evenodd;stroke:#000000;stroke-width:1.29999995;stroke-linecap:round;stroke-linejoin:round;stroke-miterlimit:4;stroke-dasharray:none;stroke-opacity:1" />
      <path
         style="fill:#37c871;fill-opacity:1;fill-rule:evenodd;stroke:#000000;stroke-width:1.29999995;stroke-linecap:round;stroke-linejoin:round;stroke-miterlimit:4;stroke-dasharray:none;stroke-opacity:1"
         d="m -648.97866,1236.425 c -4.731,-1.2932 -8.78364,-3.0022 -11.99936,5.8982 8.48167,3.6983 10.53007,0.1053 12.5823,-5.3681"
         id="path7159"
         inkscape:connector-curvature="0"
         sodipodi:nodetypes="ccc" />
      <path
         sodipodi:nodetypes="ccc"
         inkscape:connector-curvature="0"
         id="path7161"
         d="m -637.94294,1199.2096 c -0.8615,-4.2034 -1.13028,-8.0419 -9.34773,-7.032 0.46765,8.0815 4.08161,8.2593 9.16454,7.6965"
         style="fill:#37c871;fill-opacity:1;fill-rule:evenodd;stroke:#000000;stroke-width:1.29999995;stroke-linecap:round;stroke-linejoin:round;stroke-miterlimit:4;stroke-dasharray:none;stroke-opacity:1" />
    </g>
    <g
       id="g7916"
       transform="translate(975.3941,-1062.8081)">
      <path
         style="opacity:1;fill:#87deaa;fill-opacity:1;stroke:#000000;stroke-width:1.29999995;stroke-linecap:square;stroke-linejoin:round;stroke-miterlimit:4;stroke-dasharray:none;stroke-dashoffset:0;stroke-opacity:1"
         d="m -630.60156,1171.1465 c -2.893,10e-4 -5.60238,1.4177 -7.25391,3.793 -0.46275,0.1236 -0.92158,0.2559 -1.37891,0.3925 -1.93302,-2.4661 -5.2769,-4.6075 -7.66796,-3.9668 -3.00956,0.8065 -4.91749,6.1284 -4.46875,9.4688 -3.58819,0.064 -6.60733,1.3342 -8.02149,6.2695 -0.30105,-0.032 -0.60353,-0.048 -0.90625,-0.049 -4.54014,-10e-5 -8.34196,3.4395 -8.79492,7.957 -4.13282,0.8217 -7.11096,4.4465 -7.11523,8.6602 0.003,1.1764 0.24061,2.3404 0.69921,3.4238 -2.62763,1.6036 -4.23169,4.4588 -4.23437,7.5371 0.004,2.4131 0.99356,4.7198 2.74023,6.3848 -1.31338,1.5848 -2.03246,3.5784 -2.0332,5.6367 0.005,3.3587 1.9126,6.4244 4.92383,7.9121 -0.44953,1.0773 -0.6812,2.233 -0.68164,3.4004 -9.6e-4,4.2044 2.9598,7.8275 7.08008,8.6641 -0.004,0.058 -0.007,0.1171 -0.01,0.1757 5.2e-4,4.8816 3.95826,8.8385 8.83984,8.8379 0.9071,0 1.80828,-0.1463 2.67188,-0.4238 1.59228,2.6707 4.47074,4.3083 7.58008,4.3125 0.79927,7e-4 1.59493,-0.1071 2.36523,-0.3203 6e-4,2e-4 0.001,-2e-4 0.002,0 9.58995,5.9407 17.46986,2.023 22.24266,0.8193 5.88836,3.7136 14.18531,3.13 20.52687,-0.8896 0.84035,0.2585 1.71455,0.3901 2.59375,0.3906 3.10745,0 5.98473,-1.6388 7.57812,-4.3066 0.86516,0.2759 1.76768,0.4169 2.67578,0.4179 4.88082,-5e-4 8.83737,-3.9571 8.83789,-8.8379 -5.4e-4,-0.025 -10e-4,-0.051 -0.002,-0.076 4.43597,-0.5346 7.77537,-4.2956 7.78125,-8.7637 -0.004,-1.8166 -0.56838,-3.5877 -1.61523,-5.0723 2.74444,-1.5731 4.43898,-4.4929 4.44336,-7.6562 -0.003,-2.2314 -0.85024,-4.3789 -2.3711,-6.0117 1.51994,-1.6318 2.36691,-3.7778 2.3711,-6.0078 -0.004,-2.4502 -1.02585,-4.7887 -2.82032,-6.4571 0.46115,-1.0894 0.69892,-2.2603 0.69922,-3.4433 -5.2e-4,-4.8816 -3.95826,-8.8385 -8.83984,-8.8379 -0.11791,0 -0.23577,0.01 -0.35352,0.012 l 0,-0.012 c 5.9e-4,-4.8816 -3.95629,-8.8394 -8.83789,-8.8399 -0.26747,0 -0.53467,0.018 -0.80078,0.045 -1.36602,-3.3929 -3.91989,-5.0739 -7.37695,-5.4043 0.0871,-3.3298 -1.7486,-7.9214 -4.52735,-8.666 -2.18994,-0.5868 -5.17908,1.161 -7.15234,3.3536 -1.67091,-2.1845 -4.26344,-3.4667 -7.01367,-3.4688 -1.92005,0 -3.78695,0.6309 -5.31836,1.7891 -0.44244,-0.013 -0.88286,-0.032 -1.32813,-0.033 -1.59839,-1.3611 -3.62909,-2.1089 -5.72851,-2.1094 z"
         id="path7918"
         inkscape:connector-curvature="0"
         sodipodi:nodetypes="ccccccccccccccccccccccccccccccccccccccccccscccccc" />
      <path
         style="fill:none;fill-rule:evenodd;stroke:#000000;stroke-width:1.29999995;stroke-linecap:round;stroke-linejoin:round;stroke-miterlimit:4;stroke-dasharray:none;stroke-opacity:1"
         d="m -652.30276,1220.4885 c -3.18109,4.9061 0.79642,12.5026 7.22682,10.0069 0.18341,5.6893 6.06477,10.0225 11.31818,6.7709"
         id="path7920"
         inkscape:connector-curvature="0"
         sodipodi:nodetypes="ccc" />
      <path
         style="fill:none;fill-rule:evenodd;stroke:#000000;stroke-width:1.29999995;stroke-linecap:round;stroke-linejoin:miter;stroke-miterlimit:4;stroke-dasharray:none;stroke-opacity:1"
         d="m -626.79042,1196.624 c 3.59508,-2.9268 11.34569,-1.5142 9.48647,6.0148"
         id="path7922"
         inkscape:connector-curvature="0"
         sodipodi:nodetypes="cc" />
      <path
         sodipodi:nodetypes="ccc"
         inkscape:connector-curvature="0"
         id="path7924"
         d="m -615.52988,1227.973 c 3.8249,4.7355 12.23993,3.5787 11.53636,-4.3906 7.19101,1.2954 10.25598,-5.3492 6.68948,-9.5276"
         style="fill:none;fill-rule:evenodd;stroke:#000000;stroke-width:1.29999995;stroke-linecap:round;stroke-linejoin:round;stroke-miterlimit:4;stroke-dasharray:none;stroke-opacity:1" />
      <path
         style="fill:#37c871;fill-opacity:1;fill-rule:evenodd;stroke:#000000;stroke-width:1.29999995;stroke-linecap:round;stroke-linejoin:round;stroke-miterlimit:4;stroke-dasharray:none;stroke-opacity:1"
         d="m -598.75,1228.1122 c 0.72834,4.8502 0.80236,9.2478 10.24319,8.5936 -0.0436,-9.2528 -4.15787,-9.675 -9.99381,-9.341"
         id="path7926"
         inkscape:connector-curvature="0"
         sodipodi:nodetypes="ccc" />
      <path
         sodipodi:nodetypes="ccc"
         inkscape:connector-curvature="0"
         id="path7928"
         d="m -648.97866,1236.425 c -4.731,-1.2932 -8.78364,-3.0022 -11.99936,5.8982 8.48167,3.6983 10.53007,0.1053 12.5823,-5.3681"
         style="fill:#37c871;fill-opacity:1;fill-rule:evenodd;stroke:#000000;stroke-width:1.29999995;stroke-linecap:round;stroke-linejoin:round;stroke-miterlimit:4;stroke-dasharray:none;stroke-opacity:1" />
      <path
         style="fill:#37c871;fill-opacity:1;fill-rule:evenodd;stroke:#000000;stroke-width:1.29999995;stroke-linecap:round;stroke-linejoin:round;stroke-miterlimit:4;stroke-dasharray:none;stroke-opacity:1"
         d="m -637.94294,1199.2096 c -0.8615,-4.2034 -1.13028,-8.0419 -9.34773,-7.032 0.46765,8.0815 4.08161,8.2593 9.16454,7.6965"
         id="path7930"
         inkscape:connector-curvature="0"
         sodipodi:nodetypes="ccc" />
    </g>
    <g
       id="g7932"
       transform="translate(680.39414,-842.80813)">
      <path
         style="opacity:1;fill:#87deaa;fill-opacity:1;stroke:#000000;stroke-width:1.29999995;stroke-linecap:square;stroke-linejoin:round;stroke-miterlimit:4;stroke-dasharray:none;stroke-dashoffset:0;stroke-opacity:1"
         d="m -630.60156,1171.1465 c -2.893,10e-4 -5.60238,1.4177 -7.25391,3.793 -0.46275,0.1236 -0.92158,0.2559 -1.37891,0.3925 -1.93302,-2.4661 -5.2769,-4.6075 -7.66796,-3.9668 -3.00956,0.8065 -4.91749,6.1284 -4.46875,9.4688 -3.58819,0.064 -6.60733,1.3342 -8.02149,6.2695 -0.30105,-0.032 -0.60353,-0.048 -0.90625,-0.049 -4.54014,-10e-5 -8.34196,3.4395 -8.79492,7.957 -4.13282,0.8217 -7.11096,4.4465 -7.11523,8.6602 0.003,1.1764 0.24061,2.3404 0.69921,3.4238 -2.62763,1.6036 -4.23169,4.4588 -4.23437,7.5371 0.004,2.4131 0.99356,4.7198 2.74023,6.3848 -1.31338,1.5848 -2.03246,3.5784 -2.0332,5.6367 0.005,3.3587 1.9126,6.4244 4.92383,7.9121 -0.44953,1.0773 -0.6812,2.233 -0.68164,3.4004 -9.6e-4,4.2044 2.9598,7.8275 7.08008,8.6641 -0.004,0.058 -0.007,0.1171 -0.01,0.1757 5.2e-4,4.8816 3.95826,8.8385 8.83984,8.8379 0.9071,0 1.80828,-0.1463 2.67188,-0.4238 1.59228,2.6707 4.47074,4.3083 7.58008,4.3125 0.79927,7e-4 1.59493,-0.1071 2.36523,-0.3203 6e-4,2e-4 0.001,-2e-4 0.002,0 9.58995,5.9407 17.46986,2.023 22.24266,0.8193 5.88836,3.7136 14.18531,3.13 20.52687,-0.8896 0.84035,0.2585 1.71455,0.3901 2.59375,0.3906 3.10745,0 5.98473,-1.6388 7.57812,-4.3066 0.86516,0.2759 1.76768,0.4169 2.67578,0.4179 4.88082,-5e-4 8.83737,-3.9571 8.83789,-8.8379 -5.4e-4,-0.025 -10e-4,-0.051 -0.002,-0.076 4.43597,-0.5346 7.77537,-4.2956 7.78125,-8.7637 -0.004,-1.8166 -0.56838,-3.5877 -1.61523,-5.0723 2.74444,-1.5731 4.43898,-4.4929 4.44336,-7.6562 -0.003,-2.2314 -0.85024,-4.3789 -2.3711,-6.0117 1.51994,-1.6318 2.36691,-3.7778 2.3711,-6.0078 -0.004,-2.4502 -1.02585,-4.7887 -2.82032,-6.4571 0.46115,-1.0894 0.69892,-2.2603 0.69922,-3.4433 -5.2e-4,-4.8816 -3.95826,-8.8385 -8.83984,-8.8379 -0.11791,0 -0.23577,0.01 -0.35352,0.012 l 0,-0.012 c 5.9e-4,-4.8816 -3.95629,-8.8394 -8.83789,-8.8399 -0.26747,0 -0.53467,0.018 -0.80078,0.045 -1.36602,-3.3929 -3.91989,-5.0739 -7.37695,-5.4043 0.0871,-3.3298 -1.7486,-7.9214 -4.52735,-8.666 -2.18994,-0.5868 -5.17908,1.161 -7.15234,3.3536 -1.67091,-2.1845 -4.26344,-3.4667 -7.01367,-3.4688 -1.92005,0 -3.78695,0.6309 -5.31836,1.7891 -0.44244,-0.013 -0.88286,-0.032 -1.32813,-0.033 -1.59839,-1.3611 -3.62909,-2.1089 -5.72851,-2.1094 z"
         id="path7934"
         inkscape:connector-curvature="0"
         sodipodi:nodetypes="ccccccccccccccccccccccccccccccccccccccccccscccccc" />
      <path
         style="fill:none;fill-rule:evenodd;stroke:#000000;stroke-width:1.29999995;stroke-linecap:round;stroke-linejoin:round;stroke-miterlimit:4;stroke-dasharray:none;stroke-opacity:1"
         d="m -652.30276,1220.4885 c -3.18109,4.9061 0.79642,12.5026 7.22682,10.0069 0.18341,5.6893 6.06477,10.0225 11.31818,6.7709"
         id="path7936"
         inkscape:connector-curvature="0"
         sodipodi:nodetypes="ccc" />
      <path
         style="fill:none;fill-rule:evenodd;stroke:#000000;stroke-width:1.29999995;stroke-linecap:round;stroke-linejoin:miter;stroke-miterlimit:4;stroke-dasharray:none;stroke-opacity:1"
         d="m -626.79042,1196.624 c 3.59508,-2.9268 11.34569,-1.5142 9.48647,6.0148"
         id="path7938"
         inkscape:connector-curvature="0"
         sodipodi:nodetypes="cc" />
      <path
         sodipodi:nodetypes="ccc"
         inkscape:connector-curvature="0"
         id="path7940"
         d="m -615.52988,1227.973 c 3.8249,4.7355 12.23993,3.5787 11.53636,-4.3906 7.19101,1.2954 10.25598,-5.3492 6.68948,-9.5276"
         style="fill:none;fill-rule:evenodd;stroke:#000000;stroke-width:1.29999995;stroke-linecap:round;stroke-linejoin:round;stroke-miterlimit:4;stroke-dasharray:none;stroke-opacity:1" />
      <path
         style="fill:#37c871;fill-opacity:1;fill-rule:evenodd;stroke:#000000;stroke-width:1.29999995;stroke-linecap:round;stroke-linejoin:round;stroke-miterlimit:4;stroke-dasharray:none;stroke-opacity:1"
         d="m -598.75,1228.1122 c 0.72834,4.8502 0.80236,9.2478 10.24319,8.5936 -0.0436,-9.2528 -4.15787,-9.675 -9.99381,-9.341"
         id="path7942"
         inkscape:connector-curvature="0"
         sodipodi:nodetypes="ccc" />
      <path
         sodipodi:nodetypes="ccc"
         inkscape:connector-curvature="0"
         id="path7944"
         d="m -648.97866,1236.425 c -4.731,-1.2932 -8.78364,-3.0022 -11.99936,5.8982 8.48167,3.6983 10.53007,0.1053 12.5823,-5.3681"
         style="fill:#37c871;fill-opacity:1;fill-rule:evenodd;stroke:#000000;stroke-width:1.29999995;stroke-linecap:round;stroke-linejoin:round;stroke-miterlimit:4;stroke-dasharray:none;stroke-opacity:1" />
      <path
         style="fill:#37c871;fill-opacity:1;fill-rule:evenodd;stroke:#000000;stroke-width:1.29999995;stroke-linecap:round;stroke-linejoin:round;stroke-miterlimit:4;stroke-dasharray:none;stroke-opacity:1"
         d="m -637.94294,1199.2096 c -0.8615,-4.2034 -1.13028,-8.0419 -9.34773,-7.032 0.46765,8.0815 4.08161,8.2593 9.16454,7.6965"
         id="path7946"
         inkscape:connector-curvature="0"
         sodipodi:nodetypes="ccc" />
    </g>
    <g
       transform="translate(975.3941,-842.80813)"
       id="g7948">
      <path
         sodipodi:nodetypes="ccccccccccccccccccccccccccccccccccccccccccscccccc"
         inkscape:connector-curvature="0"
         id="path7950"
         d="m -630.60156,1171.1465 c -2.893,10e-4 -5.60238,1.4177 -7.25391,3.793 -0.46275,0.1236 -0.92158,0.2559 -1.37891,0.3925 -1.93302,-2.4661 -5.2769,-4.6075 -7.66796,-3.9668 -3.00956,0.8065 -4.91749,6.1284 -4.46875,9.4688 -3.58819,0.064 -6.60733,1.3342 -8.02149,6.2695 -0.30105,-0.032 -0.60353,-0.048 -0.90625,-0.049 -4.54014,-10e-5 -8.34196,3.4395 -8.79492,7.957 -4.13282,0.8217 -7.11096,4.4465 -7.11523,8.6602 0.003,1.1764 0.24061,2.3404 0.69921,3.4238 -2.62763,1.6036 -4.23169,4.4588 -4.23437,7.5371 0.004,2.4131 0.99356,4.7198 2.74023,6.3848 -1.31338,1.5848 -2.03246,3.5784 -2.0332,5.6367 0.005,3.3587 1.9126,6.4244 4.92383,7.9121 -0.44953,1.0773 -0.6812,2.233 -0.68164,3.4004 -9.6e-4,4.2044 2.9598,7.8275 7.08008,8.6641 -0.004,0.058 -0.007,0.1171 -0.01,0.1757 5.2e-4,4.8816 3.95826,8.8385 8.83984,8.8379 0.9071,0 1.80828,-0.1463 2.67188,-0.4238 1.59228,2.6707 4.47074,4.3083 7.58008,4.3125 0.79927,7e-4 1.59493,-0.1071 2.36523,-0.3203 6e-4,2e-4 0.001,-2e-4 0.002,0 9.58995,5.9407 17.46986,2.023 22.24266,0.8193 5.88836,3.7136 14.18531,3.13 20.52687,-0.8896 0.84035,0.2585 1.71455,0.3901 2.59375,0.3906 3.10745,0 5.98473,-1.6388 7.57812,-4.3066 0.86516,0.2759 1.76768,0.4169 2.67578,0.4179 4.88082,-5e-4 8.83737,-3.9571 8.83789,-8.8379 -5.4e-4,-0.025 -10e-4,-0.051 -0.002,-0.076 4.43597,-0.5346 7.77537,-4.2956 7.78125,-8.7637 -0.004,-1.8166 -0.56838,-3.5877 -1.61523,-5.0723 2.74444,-1.5731 4.43898,-4.4929 4.44336,-7.6562 -0.003,-2.2314 -0.85024,-4.3789 -2.3711,-6.0117 1.51994,-1.6318 2.36691,-3.7778 2.3711,-6.0078 -0.004,-2.4502 -1.02585,-4.7887 -2.82032,-6.4571 0.46115,-1.0894 0.69892,-2.2603 0.69922,-3.4433 -5.2e-4,-4.8816 -3.95826,-8.8385 -8.83984,-8.8379 -0.11791,0 -0.23577,0.01 -0.35352,0.012 l 0,-0.012 c 5.9e-4,-4.8816 -3.95629,-8.8394 -8.83789,-8.8399 -0.26747,0 -0.53467,0.018 -0.80078,0.045 -1.36602,-3.3929 -3.91989,-5.0739 -7.37695,-5.4043 0.0871,-3.3298 -1.7486,-7.9214 -4.52735,-8.666 -2.18994,-0.5868 -5.17908,1.161 -7.15234,3.3536 -1.67091,-2.1845 -4.26344,-3.4667 -7.01367,-3.4688 -1.92005,0 -3.78695,0.6309 -5.31836,1.7891 -0.44244,-0.013 -0.88286,-0.032 -1.32813,-0.033 -1.59839,-1.3611 -3.62909,-2.1089 -5.72851,-2.1094 z"
         style="opacity:1;fill:#87deaa;fill-opacity:1;stroke:#000000;stroke-width:1.29999995;stroke-linecap:square;stroke-linejoin:round;stroke-miterlimit:4;stroke-dasharray:none;stroke-dashoffset:0;stroke-opacity:1" />
      <path
         sodipodi:nodetypes="ccc"
         inkscape:connector-curvature="0"
         id="path7952"
         d="m -652.30276,1220.4885 c -3.18109,4.9061 0.79642,12.5026 7.22682,10.0069 0.18341,5.6893 6.06477,10.0225 11.31818,6.7709"
         style="fill:none;fill-rule:evenodd;stroke:#000000;stroke-width:1.29999995;stroke-linecap:round;stroke-linejoin:round;stroke-miterlimit:4;stroke-dasharray:none;stroke-opacity:1" />
      <path
         sodipodi:nodetypes="cc"
         inkscape:connector-curvature="0"
         id="path7954"
         d="m -626.79042,1196.624 c 3.59508,-2.9268 11.34569,-1.5142 9.48647,6.0148"
         style="fill:none;fill-rule:evenodd;stroke:#000000;stroke-width:1.29999995;stroke-linecap:round;stroke-linejoin:miter;stroke-miterlimit:4;stroke-dasharray:none;stroke-opacity:1" />
      <path
         style="fill:none;fill-rule:evenodd;stroke:#000000;stroke-width:1.29999995;stroke-linecap:round;stroke-linejoin:round;stroke-miterlimit:4;stroke-dasharray:none;stroke-opacity:1"
         d="m -615.52988,1227.973 c 3.8249,4.7355 12.23993,3.5787 11.53636,-4.3906 7.19101,1.2954 10.25598,-5.3492 6.68948,-9.5276"
         id="path7956"
         inkscape:connector-curvature="0"
         sodipodi:nodetypes="ccc" />
      <path
         sodipodi:nodetypes="ccc"
         inkscape:connector-curvature="0"
         id="path7958"
         d="m -598.75,1228.1122 c 0.72834,4.8502 0.80236,9.2478 10.24319,8.5936 -0.0436,-9.2528 -4.15787,-9.675 -9.99381,-9.341"
         style="fill:#37c871;fill-opacity:1;fill-rule:evenodd;stroke:#000000;stroke-width:1.29999995;stroke-linecap:round;stroke-linejoin:round;stroke-miterlimit:4;stroke-dasharray:none;stroke-opacity:1" />
      <path
         style="fill:#37c871;fill-opacity:1;fill-rule:evenodd;stroke:#000000;stroke-width:1.29999995;stroke-linecap:round;stroke-linejoin:round;stroke-miterlimit:4;stroke-dasharray:none;stroke-opacity:1"
         d="m -648.97866,1236.425 c -4.731,-1.2932 -8.78364,-3.0022 -11.99936,5.8982 8.48167,3.6983 10.53007,0.1053 12.5823,-5.3681"
         id="path7960"
         inkscape:connector-curvature="0"
         sodipodi:nodetypes="ccc" />
      <path
         sodipodi:nodetypes="ccc"
         inkscape:connector-curvature="0"
         id="path7962"
         d="m -637.94294,1199.2096 c -0.8615,-4.2034 -1.13028,-8.0419 -9.34773,-7.032 0.46765,8.0815 4.08161,8.2593 9.16454,7.6965"
         style="fill:#37c871;fill-opacity:1;fill-rule:evenodd;stroke:#000000;stroke-width:1.29999995;stroke-linecap:round;stroke-linejoin:round;stroke-miterlimit:4;stroke-dasharray:none;stroke-opacity:1" />
    </g>
    <text
       xml:space="preserve"
       style="font-style:normal;font-variant:normal;font-weight:normal;font-stretch:normal;font-size:25px;line-height:135.00000238%;font-family:'Avenir Next';-inkscape-font-specification:'Avenir Next, Normal';text-align:start;letter-spacing:0px;word-spacing:0px;writing-mode:lr-tb;text-anchor:start;fill:#000000;fill-opacity:1;stroke:none;stroke-width:1px;stroke-linecap:butt;stroke-linejoin:miter;stroke-opacity:1"
       x="291.60367"
       y="242.06221"
       id="text7987"
       sodipodi:linespacing="135%"><tspan
         sodipodi:role="line"
         x="291.60367"
         y="242.06221"
         id="tspan7989">2. Pretend not to see</tspan></text>
    <text
       xml:space="preserve"
       style="font-style:normal;font-variant:normal;font-weight:normal;font-stretch:normal;font-size:25px;line-height:135.00000238%;font-family:'Avenir Next';-inkscape-font-specification:'Avenir Next, Normal';text-align:start;letter-spacing:0px;word-spacing:0px;writing-mode:lr-tb;text-anchor:start;fill:#000000;fill-opacity:1;stroke:none;stroke-width:1px;stroke-linecap:butt;stroke-linejoin:miter;stroke-opacity:1"
       x="28.75"
       y="241.91222"
       id="text7991"
       sodipodi:linespacing="135%"><tspan
         sodipodi:role="line"
         x="28.75"
         y="241.91222"
         id="tspan7993">1. See nemesis</tspan></text>
    <text
       sodipodi:linespacing="135%"
       id="text7995"
       y="460.9122"
       x="113.0396"
       style="font-style:normal;font-variant:normal;font-weight:normal;font-stretch:normal;font-size:25px;line-height:135.00000238%;font-family:'Avenir Next';-inkscape-font-specification:'Avenir Next, Normal';text-align:center;letter-spacing:0px;word-spacing:0px;writing-mode:lr-tb;text-anchor:middle;fill:#000000;fill-opacity:1;stroke:none;stroke-width:1px;stroke-linecap:butt;stroke-linejoin:miter;stroke-opacity:1"
       xml:space="preserve"><tspan
         y="460.9122"
         x="113.0396"
         sodipodi:role="line"
         id="tspan7999">3. Growl to self</tspan></text>
    <text
       xml:space="preserve"
       style="font-style:normal;font-variant:normal;font-weight:normal;font-stretch:normal;font-size:25px;line-height:135.00000238%;font-family:'Avenir Next';-inkscape-font-specification:'Avenir Next, Normal';text-align:start;letter-spacing:0px;word-spacing:0px;writing-mode:lr-tb;text-anchor:start;fill:#000000;fill-opacity:1;stroke:none;stroke-width:1px;stroke-linecap:butt;stroke-linejoin:miter;stroke-opacity:1"
       x="297.18472"
       y="461.36221"
       id="text8001"
       sodipodi:linespacing="135%"><tspan
         id="tspan8005"
         sodipodi:role="line"
         x="297.18472"
         y="461.36221">4. Give up and bark</tspan></text>
    <text
       xml:space="preserve"
       style="font-style:normal;font-weight:normal;font-size:40px;line-height:185.00000238%;font-family:sans-serif;letter-spacing:0px;word-spacing:0px;fill:#000000;fill-opacity:1;stroke:none;stroke-width:1px;stroke-linecap:butt;stroke-linejoin:miter;stroke-opacity:1"
       x="65"
       y="-39.637794"
       id="text8030"
       sodipodi:linespacing="185%"><tspan
         sodipodi:role="line"
         id="tspan8032"
         x="65"
         y="-39.637794" /></text>
    <text
       sodipodi:linespacing="105%"
       id="text8034"
       y="15.034897"
       x="258.90695"
       style="font-style:normal;font-variant:normal;font-weight:500;font-stretch:normal;font-size:30px;line-height:104.99999523%;font-family:'Avenir Next';-inkscape-font-specification:'Avenir Next, Medium';text-align:center;letter-spacing:0px;word-spacing:0px;writing-mode:lr-tb;text-anchor:middle;fill:#000000;fill-opacity:1;stroke:none;stroke-width:1px;stroke-linecap:butt;stroke-linejoin:miter;stroke-opacity:1"
       xml:space="preserve"><tspan
         y="15.034897"
         x="258.90695"
         sodipodi:role="line"
         id="tspan8042">When you're out and accidentally</tspan><tspan
         y="46.534897"
         x="258.90695"
         sodipodi:role="line"
         id="tspan8048">meet your nemesis</tspan></text>
    <path
       style="fill:none;fill-rule:evenodd;stroke:#000000;stroke-width:1.29999995;stroke-linecap:round;stroke-linejoin:round;stroke-miterlimit:4;stroke-dasharray:none;stroke-opacity:1"
       d="m 415.07168,328.46164 c -2.77039,-3.86106 -7.96584,-5.32768 -9.89899,-9.8995"
       id="path8052"
       inkscape:connector-curvature="0" />
    <path
       style="fill:none;fill-rule:evenodd;stroke:#000000;stroke-width:1.29999995;stroke-linecap:round;stroke-linejoin:round;stroke-miterlimit:4;stroke-dasharray:none;stroke-opacity:1"
       d="m 408.50924,336.18168 c -3.85889,0.42785 -7.36584,-1.51855 -10.73652,-3.06336"
       id="path8054"
       inkscape:connector-curvature="0" />
    <path
       style="fill:none;fill-rule:evenodd;stroke:#000000;stroke-width:1.29999995;stroke-linecap:round;stroke-linejoin:round;stroke-miterlimit:4;stroke-dasharray:none;stroke-opacity:1"
       d="m 423.55696,322.98156 c -2.30999,-3.03815 -2.95475,-7.08662 -2.29813,-10.78338"
       id="path8056"
       inkscape:connector-curvature="0" />
    <g
       id="g8255"
       style="opacity:0.2"
       transform="translate(2,2)">
      <g
         id="g8201"
         transform="matrix(0.52571862,0.14086588,-0.14086588,0.52571862,252.41237,-307.62808)"
         inkscape:export-filename="/Users/benjaminrobinson/Desktop/favicon.png"
         inkscape:export-xdpi="1299.9701"
         inkscape:export-ydpi="1299.9701">
        <circle
           r="17.147339"
           cy="479.42892"
           cx="44.724503"
           id="circle8203"
           style="opacity:1;fill:#ff7f2a;fill-opacity:1;stroke:#000000;stroke-width:2.38854694;stroke-linecap:square;stroke-linejoin:round;stroke-miterlimit:4;stroke-dasharray:none;stroke-dashoffset:0;stroke-opacity:1" />
        <path
           inkscape:connector-curvature="0"
           id="path8205"
           d="m 54.094417,456.27094 a 11.136931,11.136931 0 0 0 -9.94336,6.15039 11.136931,11.136931 0 0 0 9.94336,6.12304 11.136931,11.136931 0 0 0 9.941406,-6.14648 11.136931,11.136931 0 0 0 -9.941406,-6.12695 z"
           style="opacity:1;fill:#5fd38d;fill-opacity:1;stroke:#000000;stroke-width:2.38854694;stroke-linecap:square;stroke-linejoin:round;stroke-miterlimit:4;stroke-dasharray:none;stroke-dashoffset:0;stroke-opacity:1" />
      </g>
      <text
         xml:space="preserve"
         style="font-style:normal;font-variant:normal;font-weight:normal;font-stretch:normal;font-size:21.70886803px;line-height:135.00000238%;font-family:'Avenir Next';-inkscape-font-specification:'Avenir Next, Normal';text-align:start;letter-spacing:0px;word-spacing:0px;writing-mode:lr-tb;text-anchor:start;fill:#000000;fill-opacity:1;stroke:none;stroke-width:1px;stroke-linecap:butt;stroke-linejoin:miter;stroke-opacity:1"
         x="228.43179"
         y="-44.311798"
         id="text8213"
         sodipodi:linespacing="135%"><tspan
           sodipodi:role="line"
           x="228.43179"
           y="-44.311798"
           id="tspan8217">camquat</tspan></text>
    </g>
  </g>
</svg>
